# Wavefront OBJ file written 2026-10-09T11:44:07
o body_edgeMesh

# points : 2371
# lines  : 2362

# <points count="2371">
v 2.36 -0.075 0.432882
v 2.36 0.075 0.432882
v 2.36 0.075 0.170381
v 2.36 -0.075 0.170379
v 0.749893 0.364533 0.0418831
v 0.749893 -0.364533 0.041882
v 0.525824 0.341117 0.0439171
v 0.525824 0.35 0.0439173
v 0.406652 0.4 0.0449996
v 0.406652 -0.4 0.0449986
v 0.519633 -0.35 0.0439733
v 0.407508 -0.35 0.0449912
v 0.410659 0.35 0.0449636
v 2.36 -0.053033 0.515571
v 2.36 0.053033 0.515571
v 0.825616 0.399982 0.149633
v 0.825616 0.399977 0.149634
v 0.795898 0.4 0.391153
v 2.34144 0.063441 0.522271
v 0.998208 0.291377 0.463183
v 2.35071 -0.0582144 0.518984
v 0.749893 0.325 0.041881
v 0.406643 0.325 0.0450076
v 0.518538 0.325 0.0439833
v 0.410659 0.325 0.0449636
v 0.998208 -0.291377 0.463183
v 0.795898 -0.4 0.391153
v 0.749902 -0.325 0.0418879
v 0.40665 -0.325 0.0450013
v 0.519633 -0.325 0.0439733
v 0.407508 -0.325 0.0449922
v 2.36 -0.074998 0.463084
v 2.36 -0.075 0.462538
v 2.36 -0.0747835 0.46823
v 2.36 -0.0749266 0.465852
v 2.36 -0.075 0.443824
v 2.36 -0.075 0.460319
v 2.36 0.075 0.460319
v 2.36 0.075 0.462538
v 2.36 0.075 0.244012
v 2.36 -0.0744775 0.471374
v 2.36 -0.075 0.244012
v 2.36 -0.075 0.454804
v 2.36 0.075 0.181886
v 2.36 0.075 0.184187
v 2.36 0.075 0.174983
v 2.36 0.075 0.177284
v 2.36 0.075 0.172682
v 2.36 0.075 0.188789
v 2.36 0.075 0.193391
v 2.36 0.075 0.454804
v 2.36 -0.075 0.23941
v 2.36 -0.075 0.234808
v 2.36 0.075 0.179585
v 2.36 0.075 0.186488
v 2.36 0.075 0.443824
v 2.36 0.075 0.23941
v 2.36 0.0749266 0.465852
v 2.36 0.0747531 0.468616
v 2.36 -0.0662291 0.497733
v 2.36 -0.067328 0.495582
v 2.36 -0.0715809 0.484924
v 2.36 -0.0723608 0.482258
v 2.36 -0.075 0.174983
v 2.36 -0.075 0.172682
v 2.36 -0.075 0.179585
v 2.36 -0.075 0.177284
v 2.36 0.075 0.197993
v 2.36 0.075 0.202595
v 2.36 0.075 0.230206
v 2.36 0.075 0.234808
v 2.36 0.0749747 0.464485
v 2.36 0.0741002 0.474121
v 2.36 0.0738185 0.475799
v 2.36 -0.0646252 0.500598
v 2.36 -0.0696437 0.490373
v 2.36 -0.0707027 0.48756
v 2.36 -0.0715581 0.484997
v 2.36 -0.0736214 0.476853
v 2.36 -0.0741348 0.473897
v 2.36 -0.075 0.230206
v 2.36 -0.075 0.225604
v 2.36 -0.075 0.193391
v 2.36 -0.075 0.188789
v 2.36 -0.075 0.184187
v 2.36 -0.075 0.181886
v 2.36 0.075 0.2164
v 2.36 0.075 0.221002
v 2.36 0.075 0.225604
v 2.36 0.074998 0.463084
v 2.36 0.0744775 0.471374
v 2.36 0.0416679 0.524898
v 2.36 0.0401249 0.525902
v 2.36 -0.0686554 0.492728
v 2.36 -0.0730413 0.479567
v 2.36 -0.075 0.221002
v 2.36 -0.075 0.211798
v 2.36 -0.075 0.207197
v 2.36 -0.075 0.202595
v 2.36 -0.075 0.197993
v 2.36 -0.075 0.186488
v 2.36 0.075 0.207197
v 2.36 0.075 0.211798
v 2.36 0.0746109 0.470165
v 2.36 0.0709626 0.486813
v 2.36 0.0697272 0.490163
v 2.36 0.0674888 0.495252
v 2.36 0.0664704 0.497275
v 2.36 0.063645 0.502216
v 2.36 0.0604469 0.506936
v 2.36 0.0353547 0.528682
v 2.36 0.0337208 0.529529
v 2.36 -0.0252667 0.533154
v 2.36 -0.0269922 0.532512
v 2.36 -0.0730567 0.479501
v 2.36 -0.075 0.2164
v 2.36 0.0263482 0.170381
v 2.36 0.051475 0.170381
v 2.36 0.0730413 0.479567
v 2.36 0.0689158 0.492129
v 2.36 0.0648782 0.500165
v 2.36 0.0428374 0.524101
v 2.36 0.0369674 0.527794
v 2.36 0.0269922 0.532512
v 2.36 0.0252667 0.533154
v 2.36 -0.0461423 0.521664
v 2.36 -0.0475793 0.520513
v 2.36 -0.0615455 0.5054
v 2.36 -0.0634378 0.502546
v 2.36 -0.0740882 0.170381
v 2.36 -0.0489921 0.170381
v 2.36 -0.0238868 0.170381
v 2.36 0.00122709 0.170381
v 2.36 0.0725986 0.481364
v 2.36 0.0715809 0.484924
v 2.36 0.0569032 0.511395
v 2.36 0.0503668 0.518109
v 2.36 0.0489878 0.519328
v 2.36 0.0385577 0.526867
v 2.36 0.0446774 0.522778
v 2.36 0.0431857 0.523857
v 2.36 0.0330217 0.529877
v 2.36 0.0320666 0.530337
v 2.36 0.0278137 0.53219
v 2.36 0.0303931 0.531104
v 2.36 0.0287013 0.531829
v 2.36 -0.0242661 0.533504
v 2.36 -0.0401249 0.525902
v 2.36 -0.0416679 0.524898
v 2.36 -0.0446774 0.522778
v 2.36 -0.0543479 0.514222
v 2.36 0.0473836 0.520673
v 2.36 0.0461423 0.521664
v 2.36 0.0475793 0.520513
v 2.36 0.0182235 0.53529
v 2.36 0.0169494 0.535598
v 2.36 0.0217713 0.534308
v 2.36 0.0200034 0.534821
v 2.36 -0.0287013 0.531829
v 2.36 -0.0303931 0.531104
v 2.36 -0.0320666 0.530337
v 2.36 -0.0431857 0.523857
v 2.36 -0.0517155 0.516856
v 2.36 -0.0602959 0.50714
v 2.36 0.0516613 0.516908
v 2.36 0.0380357 0.527177
v 2.36 0.0235261 0.533752
v 2.36 -0.0295842 0.531456
v 2.36 -0.0347334 0.52901
v 2.36 -0.0353547 0.528682
v 2.36 -0.0337208 0.529529
v 2.36 -0.039676 0.526184
v 2.36 -0.0369674 0.527794
v 2.36 -0.0385577 0.526867
v 2.36 -0.0488564 0.519441
v 2.36 -0.0489878 0.519328
v 2.36 -0.0443967 0.522985
v 2.36 -0.0503668 0.518109
v 2.36 -0.0568211 0.51149
v 2.36 -0.0581162 0.509945
v 2.36 0.0224429 0.534101
v 2.36 0.0113498 0.536674
v 2.36 0.0110048 0.536726
v 2.36 0.0146318 0.536097
v 2.36 -0.0200034 0.534821
v 2.36 -0.0217713 0.534308
v 2.36 -0.0188118 0.53514
v 2.36 -0.0235261 0.533752
v 2.36 0.00569017 0.537321
v 2.36 0 0.537538
v 2.36 -0.00191541 0.537513
v 2.36 -0.00368007 0.537447
v 2.36 -0.00760287 0.537151
v 2.36 -0.0110048 0.536726
v 2.36 -0.0146318 0.536097
v 2.36 -0.0182235 0.53529
v 2.36 0.00735129 0.537176
v 2.36 -0.0132409 0.53636
v 2.13344 0.179546 0.0883125
v 2.11832 0.186376 0.0832456
v 1.9367 0.258743 0.0444921
v 1.92941 0.261151 0.0440161
v 1.91983 0.264269 0.0434814
v 1.91177 0.266858 0.0431032
v 1.97018 0.247236 0.0476109
v 1.96141 0.250327 0.0466308
v 1.95349 0.253072 0.045849
v 1.94578 0.255698 0.0451782
v 1.99197 0.239292 0.0506143
v 1.97692 0.244822 0.0484497
v 2.00716 0.233517 0.0532195
v 2.02251 0.227485 0.0562816
v 2.01639 0.229913 0.055009
v 2.03744 0.221437 0.0596619
v 2.02281 0.227364 0.0563462
v 2.05285 0.215027 0.0635314
v 2.05064 0.215956 0.0629537
v 2.09892 0.19505 0.0769676
v 2.08963 0.19916 0.0740703
v 2.08458 0.201377 0.0725321
v 2.08327 0.201951 0.0721365
v 2.0693 0.208021 0.0680391
v 2.06764 0.208732 0.0675701
v 2.11449 0.188097 0.0819846
v 2.11004 0.190094 0.0805301
v 2.10147 0.193919 0.077775
v 2.26817 0.117475 0.13665
v 2.24224 0.129487 0.127139
v 2.20233 0.147949 0.112606
v 2.19343 0.152055 0.109397
v 2.20693 0.145824 0.114271
v 2.1609 0.167019 0.0978123
v 2.15999 0.167438 0.0974911
v 2.16876 0.163414 0.100584
v 2.15196 0.17111 0.0946855
v 2.13515 0.178769 0.0888947
v 2.22518 0.137385 0.120904
v 2.2191 0.140194 0.118693
v 2.23588 0.132432 0.124811
v 2.31408 0.0962226 0.153524
v 2.30295 0.101371 0.149435
v 2.28347 0.110389 0.142273
v 2.26941 0.116902 0.137105
v 2.29877 0.103304 0.147899
v 2.29045 0.107159 0.144837
v 2.34469 0.0820702 0.164767
v 2.33651 0.0858495 0.161765
v 2.35582 0.076929 0.16885
v 1.89232 0.272996 0.0424186
v 1.87039 0.279761 0.0419473
v 1.85196 0.285353 0.0417292
v 2.32938 0.0891445 0.159148
v 2.04367 0.218867 0.0611809
v 2.00776 0.233285 0.053331
v 1.90291 0.269672 0.0427546
v 0.932963 0.362862 0.0418731
v 0.871277 0.363811 0.0418775
v 0.808016 0.36437 0.0418801
v 0.993224 0.36153 0.0418672
v 1.10748 0.357833 0.0418522
v 1.04997 0.359892 0.0418604
v 1.1637 0.355414 0.0418431
v 1.27355 0.349452 0.0418226
v 1.2187 0.352639 0.0418332
v 1.61919 0.318479 0.0417515
v 1.57127 0.323997 0.0417605
v 1.47903 0.333456 0.0417794
v 1.42897 0.337976 0.0417901
v 1.37812 0.342146 0.041801
v 1.32634 0.345972 0.0418119
v 1.54369 0.326983 0.0417659
v 1.52271 0.329164 0.0417702
v 1.74948 0.301267 0.0417329
v 1.71335 0.306373 0.041737
v 1.681 0.310725 0.0417415
v 1.6665 0.312609 0.0417436
v 1.64671 0.315116 0.0417468
v 1.78368 0.296195 0.0417299
v 1.75983 0.299757 0.0417319
v 1.82165 0.290283 0.0417279
v 1.81784 0.290891 0.0417281
v 1.80595 0.292764 0.0417286
v 0.787319 0.364466 0.0418806
v 0.750246 0.364533 0.041881
v 0.806356 0.36438 0.0418802
v 0.757168 0.366594 0.0481438
v 0.757273 0.366625 0.0482388
v 0.762946 0.368364 0.0535232
v 0.764355 0.368814 0.0548932
v 0.769088 0.370385 0.0596664
v 0.764154 0.36875 0.0546963
v 0.77126 0.371137 0.0619509
v 0.774974 0.372468 0.0659985
v 0.770976 0.371037 0.0616488
v 0.777971 0.373589 0.0694037
v 0.780604 0.374608 0.0725
v 0.777617 0.373454 0.0689945
v 0.784472 0.376168 0.0772413
v 0.785977 0.376796 0.0791515
v 0.784059 0.375998 0.0767246
v 0.790283 0.378664 0.0848262
v 0.790741 0.378869 0.085449
v 0.796266 0.381446 0.0932811
v 0.796757 0.381685 0.0940071
v 0.802495 0.384607 0.102889
v 0.80491 0.385916 0.106868
v 0.801983 0.384336 0.102065
v 0.807407 0.387324 0.111146
v 0.807928 0.387625 0.112062
v 0.812508 0.390397 0.120485
v 0.813026 0.390725 0.121483
v 0.81776 0.39389 0.131101
v 0.819741 0.395314 0.135427
v 0.817257 0.393539 0.130032
v 0.82162 0.396729 0.139728
v 0.85908 0.399846 0.149629
v 0.822098 0.3971 0.140855
v 1.40603 0.339909 0.041795
v 1.30261 0.347588 0.0418168
v 2.11978 -0.185719 0.0837288
v 2.13 -0.181104 0.0871481
v 2.11449 -0.188097 0.0819846
v 1.9279 -0.261644 0.0439254
v 1.9367 -0.258743 0.0444921
v 1.92232 -0.263465 0.0436109
v 1.89072 -0.273494 0.0423748
v 1.90339 -0.26952 0.0427718
v 1.88198 -0.276202 0.0421632
v 1.90933 -0.267637 0.0430004
v 1.95512 -0.25251 0.0460023
v 1.97018 -0.247236 0.0476109
v 1.95349 -0.253072 0.045849
v 1.93939 -0.257846 0.0446844
v 1.97744 -0.244631 0.0485189
v 1.97849 -0.244253 0.0486569
v 1.97085 -0.246999 0.0476904
v 1.97409 -0.245839 0.0480884
v 1.98328 -0.242507 0.0493151
v 1.98657 -0.241297 0.0497906
v 2.03123 -0.223973 0.0582094
v 2.03219 -0.223584 0.0584296
v 2.04367 -0.218867 0.0611809
v 2.04633 -0.217761 0.061848
v 2.09213 -0.198057 0.0748424
v 2.09929 -0.194887 0.0770836
v 2.08327 -0.201951 0.0721365
v 2.06752 -0.208785 0.0675352
v 2.07905 -0.203793 0.070877
v 2.08228 -0.202385 0.0718388
v 2.06219 -0.21107 0.0660453
v 2.0596 -0.212171 0.0653371
v 2.25295 -0.124525 0.131064
v 2.26817 -0.117475 0.13665
v 2.18164 -0.157491 0.105166
v 2.19948 -0.149264 0.111577
v 2.17692 -0.159664 0.103481
v 2.17672 -0.159752 0.103412
v 2.17624 -0.159976 0.103239
v 2.16379 -0.165695 0.098828
v 2.14591 -0.173873 0.0925858
v 2.14326 -0.175079 0.0916731
v 2.22244 -0.138654 0.119905
v 2.22299 -0.138395 0.120109
v 2.20693 -0.145824 0.114271
v 2.21731 -0.141026 0.118038
v 2.29914 -0.103135 0.148033
v 2.31408 -0.0962226 0.153524
v 2.29877 -0.103304 0.147899
v 2.26916 -0.117018 0.137013
v 2.28347 -0.110389 0.142273
v 2.28862 -0.108007 0.144164
v 2.3243 -0.091493 0.157282
v 2.32938 -0.0891445 0.159148
v 1.87206 -0.279248 0.0419744
v 1.86897 -0.280194 0.0419254
v 1.85196 -0.285353 0.0417295
v 2.34469 -0.0820702 0.164767
v 2.23756 -0.131652 0.125428
v 2.00158 -0.235661 0.052213
v 2.01635 -0.22993 0.0550007
v 1.29209 -0.348277 0.0418189
v 1.33085 -0.345655 0.0418109
v 0.883088 -0.363661 0.0418768
v 0.947684 -0.362574 0.0418718
v 0.81673 -0.364318 0.0418799
v 0.845967 -0.364084 0.0418788
v 1.13027 -0.356902 0.0418486
v 1.18855 -0.354212 0.0418387
v 1.23637 -0.35166 0.0418299
v 1.26812 -0.349788 0.0418237
v 1.59283 -0.321567 0.0417564
v 1.60266 -0.320431 0.0417545
v 1.57806 -0.323241 0.0417592
v 1.37157 -0.342653 0.0418024
v 1.40004 -0.3404 0.0417963
v 1.4749 -0.333845 0.0417802
v 1.503 -0.331142 0.0417743
v 1.55335 -0.325953 0.041764
v 1.55546 -0.325726 0.0417636
v 1.73352 -0.303555 0.0417346
v 1.74194 -0.302354 0.0417337
v 1.71526 -0.306109 0.0417368
v 1.65155 -0.31451 0.041746
v 1.681 -0.310725 0.0417415
v 1.64671 -0.315116 0.0417468
v 1.69957 -0.308251 0.0417388
v 1.70472 -0.307554 0.0417381
v 1.78368 -0.296195 0.0417299
v 1.79379 -0.29465 0.0417293
v 0.825616 -0.399982 0.149633
v 0.821609 -0.39672 0.1397
v 0.821596 -0.39671 0.13967
v 0.817115 -0.39344 0.129732
v 0.817084 -0.393419 0.129668
v 0.812188 -0.390195 0.119872
v 0.812133 -0.390161 0.119767
v 0.806863 -0.387012 0.110198
v 0.806776 -0.386963 0.110048
v 0.809003 -0.388256 0.113977
v 0.801174 -0.383912 0.100777
v 0.801048 -0.383846 0.100576
v 0.795159 -0.380913 0.0916623
v 0.794984 -0.38083 0.0914089
v 0.791095 -0.379028 0.0859334
v 0.788848 -0.378029 0.0828987
v 0.788616 -0.377928 0.0825898
v 0.782274 -0.375272 0.0745191
v 0.781975 -0.375152 0.0741535
v 0.785978 -0.376796 0.0791515
v 0.775465 -0.372649 0.0665482
v 0.775088 -0.37251 0.0661258
v 0.768446 -0.370167 0.0590031
v 0.767981 -0.370009 0.0585252
v 0.762946 -0.368364 0.0535232
v 0.761239 -0.367828 0.0518949
v 0.760674 -0.367653 0.0513639
v 0.753188 -0.365444 0.044649
v 0.753147 -0.364533 0.041881
v 0.771705 -0.36451 0.0418808
v 0.808826 -0.364366 0.0418801
v 0.756548 -0.366411 0.0475882
v 0.753862 -0.365635 0.0452299
v 1.84024 -0.287282 0.0417275
v 1.81784 -0.290891 0.0417281
v 0.780604 -0.374608 0.0725
v 0.804911 -0.385916 0.106868
v 0.819741 -0.395314 0.135427
v 1.74695 -0.301633 0.0417332
v 1.60285 -0.320408 0.0417545
v 1.45233 -0.335919 0.0417851
v 1.34665 -0.344521 0.0418076
v 1.07052 -0.359204 0.0418576
v 1.00924 -0.361107 0.0418654
v 0.749893 0.359578 0.041881
v 0.749893 0.355111 0.041881
v 0.749893 0.35 0.0418818
v 0.799721 0.400002 0.385465
v 0.796461 0.4 0.390335
v 0.803029 0.400003 0.380269
v 0.802838 0.400003 0.380576
v 0.806208 0.400003 0.375008
v 0.809258 0.400001 0.369682
v 0.824988 0.399978 0.391002
v 0.854979 0.39986 0.390851
v 0.812181 0.399999 0.364289
v 0.85908 0.399836 0.39083
v 0.817645 0.399992 0.353294
v 0.815148 0.399996 0.35848
v 0.814976 0.399996 0.358827
v 0.822604 0.399984 0.342012
v 0.820485 0.399988 0.347011
v 0.820187 0.399988 0.34769
v 0.827038 0.399973 0.330494
v 0.825264 0.399978 0.335298
v 0.824885 0.399979 0.336286
v 0.830921 0.399963 0.318809
v 0.829478 0.399967 0.32337
v 0.82905 0.399968 0.324668
v 0.834244 0.399952 0.306978
v 0.833112 0.399956 0.311253
v 0.832651 0.399957 0.312918
v 0.837005 0.399943 0.295009
v 0.836156 0.399946 0.298974
v 0.835695 0.399947 0.301009
v 0.839205 0.399934 0.282893
v 0.838601 0.399937 0.286562
v 0.838175 0.399938 0.288971
v 0.840842 0.399928 0.270641
v 0.840445 0.39993 0.274047
v 0.840095 0.399931 0.276779
v 0.841902 0.399924 0.258366
v 0.84169 0.399925 0.261458
v 0.841444 0.399926 0.264502
v 0.842215 0.399922 0.252231
v 0.842383 0.399922 0.246095
v 0.842326 0.399922 0.248823
v 0.842407 0.399922 0.239958
v 0.842287 0.399922 0.233819
v 0.84235 0.399922 0.236173
v 0.842022 0.399923 0.227677
v 0.841612 0.399925 0.221531
v 0.841762 0.399924 0.223536
v 0.841056 0.399927 0.215378
v 0.840355 0.39993 0.209228
v 0.840565 0.399929 0.210942
v 0.839513 0.399933 0.203112
v 0.838531 0.399937 0.197034
v 0.838768 0.399936 0.19842
v 0.837409 0.399941 0.190992
v 0.836147 0.399946 0.184988
v 0.83637 0.399945 0.185999
v 0.834748 0.399951 0.17903
v 0.833205 0.399956 0.173089
v 0.833373 0.399955 0.173709
v 0.831521 0.399961 0.16718
v 0.827726 0.399972 0.15545
v 0.829695 0.399966 0.161301
v 0.891807 0.399576 0.390669
v 0.916249 0.399301 0.390552
v 0.921771 0.399229 0.390527
v 0.975727 0.398333 0.390281
v 0.982649 0.398192 0.390251
v 1.03346 0.396967 0.390038
v 1.04168 0.396737 0.390005
v 1.05027 0.396487 0.389971
v 1.08947 0.395216 0.389823
v 1.09547 0.395003 0.389802
v 1.08052 0.395525 0.389856
v 1.06545 0.39602 0.389912
v 1.09895 0.394876 0.389789
v 1.1103 0.394453 0.38975
v 1.12501 0.393876 0.3897
v 1.13961 0.393271 0.389652
v 1.1438 0.393092 0.389639
v 1.15447 0.392624 0.389606
v 1.19649 0.390607 0.389486
v 1.20829 0.38999 0.389455
v 1.16847 0.391982 0.389564
v 1.24757 0.387772 0.389365
v 1.2523 0.387487 0.389355
v 1.2248 0.389089 0.389415
v 1.26044 0.386988 0.389339
v 1.27934 0.385785 0.389305
v 1.32757 0.382424 0.38924
v 1.35855 0.380034 0.389215
v 1.31095 0.383631 0.389258
v 1.37376 0.378792 0.389209
v 1.40591 0.376011 0.389208
v 1.41875 0.37484 0.389214
v 1.46242 0.370587 0.389255
v 1.4961 0.36701 0.389314
v 1.45175 0.371666 0.389241
v 1.50489 0.366033 0.389333
v 1.539 0.362056 0.389428
v 1.54609 0.361192 0.389452
v 1.58047 0.356813 0.389586
v 1.58604 0.356072 0.389611
v 1.62056 0.351291 0.389788
v 1.62482 0.350676 0.389813
v 1.6593 0.345499 0.390036
v 1.66233 0.345026 0.390058
v 1.69672 0.33945 0.390331
v 1.6987 0.339117 0.390348
v 1.72665 0.334267 0.390611
v 1.73387 0.332969 0.390685
v 1.7639 0.327358 0.391021
v 1.79554 0.321061 0.39143
v 1.76168 0.327785 0.390994
v 1.7969 0.32078 0.391449
v 1.82818 0.314119 0.391918
v 1.82882 0.313977 0.391928
v 1.85964 0.306971 0.39246
v 1.85967 0.306963 0.39246
v 2.35349 0.0808188 0.431136
v 2.34797 0.0856581 0.429727
v 2.35026 0.0836559 0.430306
v 2.33991 0.092551 0.427786
v 2.32608 0.103922 0.424739
v 2.3301 0.100673 0.42559
v 2.33548 0.0962566 0.426772
v 2.31967 0.109012 0.423434
v 2.3226 0.106704 0.424021
v 2.31196 0.114977 0.421949
v 2.29746 0.12578 0.419375
v 2.30931 0.116996 0.421457
v 2.28698 0.133247 0.417678
v 2.29558 0.127134 0.419063
v 2.28247 0.136378 0.416986
v 2.27563 0.141046 0.415974
v 2.28136 0.137144 0.416818
v 2.26701 0.146766 0.414767
v 2.25103 0.156962 0.412699
v 2.25134 0.156771 0.412737
v 2.26662 0.147024 0.414713
v 2.23448 0.16698 0.410769
v 2.23546 0.166397 0.410878
v 2.24022 0.163561 0.411417
v 2.21732 0.176831 0.408964
v 2.21898 0.175902 0.409131
v 2.22799 0.170767 0.410064
v 2.19953 0.186522 0.407275
v 2.20187 0.185278 0.407487
v 2.18106 0.196058 0.405693
v 2.18535 0.193891 0.406046
v 2.1669 0.203037 0.404583
v 2.17697 0.198106 0.405363
v 2.16189 0.205441 0.404211
v 2.16371 0.204575 0.404344
v 2.14199 0.214672 0.402822
v 2.14774 0.212056 0.403209
v 2.15025 0.210902 0.403381
v 2.12275 0.223138 0.401609
v 2.12781 0.22095 0.401917
v 2.12131 0.223754 0.401523
v 2.13659 0.217088 0.40247
v 2.09983 0.232683 0.400307
v 2.10711 0.229713 0.400704
v 2.10871 0.229052 0.400794
v 2.0856 0.238338 0.399568
v 2.09448 0.234833 0.400023
v 2.07752 0.241458 0.39917
v 2.08006 0.240485 0.399293
v 2.06545 0.246009 0.398603
v 2.05454 0.250008 0.398118
v 2.06324 0.246827 0.398503
v 2.04002 0.25517 0.397508
v 2.05065 0.251409 0.397951
v 2.02608 0.259962 0.39696
v 2.03566 0.256687 0.397333
v 2.01596 0.263344 0.396583
v 2.02048 0.261846 0.396749
v 2.0051 0.266888 0.396196
v 2.00089 0.268241 0.396051
v 1.98954 0.271816 0.395674
v 1.99815 0.269112 0.395959
v 1.9747 0.276355 0.395209
v 1.95782 0.281339 0.394715
v 1.97244 0.277033 0.395141
v 1.94752 0.28429 0.394431
v 1.9193 0.292042 0.393715
v 1.94576 0.284786 0.394384
v 1.89003 0.299602 0.393058
v 1.9181 0.292362 0.393686
v 1.87498 0.303311 0.392752
v 1.88942 0.299756 0.393045
v 2.35202 0.0575372 0.518459
v 2.35073 0.0582346 0.518953
v 2.34143 0.0634093 0.522307
v 2.34845 0.0595459 0.519736
v 0.204555 0.23915 0.378357
v 0.199182 0.238087 0.375769
v 0.239009 0.245581 0.394383
v 0.234592 0.244794 0.39239
v 0.225308 0.243103 0.388139
v 0.268505 0.250571 0.407176
v 0.265934 0.250155 0.406098
v 0.250008 0.247496 0.399262
v 0.244848 0.246606 0.396989
v 0.219578 0.242036 0.385475
v 0.214614 0.241096 0.383143
v 0.224517 0.242957 0.387773
v 0.164189 0.230765 0.358492
v 0.158355 0.229477 0.355563
v 0.17656 0.233433 0.364668
v 0.167396 0.231465 0.360098
v 0.177249 0.233579 0.36501
v 0.185856 0.23538 0.369265
v 0.14943 0.227471 0.351071
v 0.14448 0.22634 0.348578
v 0.152586 0.228186 0.352661
v 0.27678 0.25189 0.410593
v 0.287839 0.253597 0.415039
v 0.286677 0.253421 0.414578
v 0.219293 0.224596 0.379859
v 0.232762 0.225 0.385724
v 0.205825 0.224192 0.373993
v 0.991229 0.291374 0.464244
v 2.35073 -0.0582089 0.51898
v 2.35537 -0.0556323 0.517271
v 2.34141 -0.0632769 0.522443
v 0.0700358 0.252891 0.288757
v 0.0699834 0.252771 0.288946
v 0.0700811 0.252993 0.288596
v 0.691312 0.4 0.479631
v 0.690363 0.4 0.480073
v 0.687504 0.4 0.481378
v 0.681565 0.4 0.483957
v 0.678623 0.4 0.485171
v 0.677698 0.4 0.485544
v 0.667725 0.4 0.489311
v 0.666648 0.4 0.489691
v 0.673414 0.4 0.487219
v 0.657604 0.4 0.492672
v 0.654467 0.4 0.493621
v 0.64837 0.4 0.495346
v 0.647361 0.4 0.495616
v 0.642109 0.4 0.496953
v 0.639857 0.4 0.497491
v 0.637007 0.4 0.498142
v 0.631276 0.4 0.499351
v 0.629603 0.4 0.499679
v 0.626552 0.4 0.500247
v 0.616979 0.4 0.501791
v 0.616024 0.4 0.501925
v 0.622638 0.4 0.500922
v 0.605441 0.4 0.503173
v 0.604267 0.4 0.503285
v 0.596477 0.4 0.503892
v 0.594809 0.4 0.503991
v 0.591498 0.4 0.504157
v 0.584153 0.4 0.504377
v 0.578928 0.4 0.504407
v 0.578701 0.4 0.504406
v 0.573497 0.4 0.504329
v 0.57015 0.4 0.504224
v 0.565907 0.4 0.504031
v 0.789664 0.4 0.399796
v 0.789074 0.4 0.400578
v 0.783083 0.4 0.40818
v 0.781092 0.4 0.410584
v 0.785441 0.4 0.405256
v 0.779865 0.4 0.412037
v 0.776163 0.4 0.416295
v 0.774065 0.4 0.418629
v 0.772633 0.4 0.420189
v 0.768922 0.4 0.424119
v 0.763715 0.4 0.42937
v 0.755388 0.4 0.437187
v 0.75436 0.4 0.438106
v 0.753518 0.4 0.438851
v 0.745377 0.4 0.445738
v 0.74459 0.4 0.446374
v 0.74876 0.4 0.442945
v 0.741943 0.4 0.448478
v 0.736968 0.4 0.452284
v 0.734945 0.4 0.45378
v 0.734428 0.4 0.454157
v 0.728296 0.4 0.458488
v 0.7239 0.4 0.461435
v 0.719378 0.4 0.464334
v 0.713028 0.4 0.468191
v 0.712943 0.4 0.468241
v 0.710236 0.4 0.46981
v 0.701841 0.4 0.474408
v 0.700876 0.4 0.474911
v 0.7053 0.4 0.472561
v 0.697517 0.4 0.476624
v 0.761372 0.4 0.431639
v 0.562846 0.4 0.503848
v 0.554304 0.4 0.503148
v 0.587707 0.4 0.504296
v 0.613953 0.4 0.502204
v 0.665158 0.4 0.490207
v 0.825614 0.35 0.149635
v 0.749896 0.34259 0.0418834
v 0.338736 0.4 0.1388
v 0.336382 0.4 0.144484
v 0.34109 0.4 0.13346
v 0.334163 0.4 0.150222
v 0.332079 0.4 0.156013
v 0.336173 0.4 0.145009
v 0.331744 0.4 0.156984
v 0.330128 0.4 0.161857
v 0.329691 0.4 0.163234
v 0.328316 0.4 0.167743
v 0.327903 0.4 0.16916
v 0.326644 0.4 0.173664
v 0.325112 0.4 0.179622
v 0.324658 0.4 0.181509
v 0.323719 0.4 0.185617
v 0.322467 0.4 0.191648
v 0.322018 0.4 0.194001
v 0.321356 0.4 0.197706
v 0.320388 0.4 0.203783
v 0.319564 0.4 0.209879
v 0.318882 0.4 0.215995
v 0.319988 0.4 0.206606
v 0.318575 0.4 0.219295
v 0.318344 0.4 0.222131
v 0.31795 0.4 0.228278
v 0.317806 0.4 0.231357
v 0.317594 0.4 0.240578
v 0.317594 0.4 0.243346
v 0.3177 0.4 0.234427
v 0.31778 0.4 0.232038
v 0.317605 0.4 0.244805
v 0.317633 0.4 0.246731
v 0.317817 0.4 0.252887
v 0.318053 0.4 0.257565
v 0.318144 0.4 0.259039
v 0.318616 0.4 0.265175
v 0.31999 0.4 0.277402
v 0.32042 0.4 0.280432
v 0.319231 0.4 0.271296
v 0.31912 0.4 0.270288
v 0.320805 0.4 0.282944
v 0.320892 0.4 0.283494
v 0.321937 0.4 0.289565
v 0.322634 0.4 0.293203
v 0.324451 0.4 0.301612
v 0.325919 0.4 0.307587
v 0.323124 0.4 0.295604
v 0.326009 0.4 0.307935
v 0.327528 0.4 0.31353
v 0.329277 0.4 0.319437
v 0.329517 0.4 0.320212
v 0.331162 0.4 0.325297
v 0.333183 0.4 0.331108
v 0.33534 0.4 0.33687
v 0.337633 0.4 0.342584
v 0.338302 0.4 0.344181
v 0.333618 0.4 0.332303
v 0.340061 0.4 0.348246
v 0.34262 0.4 0.353845
v 0.345307 0.4 0.35938
v 0.348124 0.4 0.36485
v 0.343558 0.4 0.355816
v 0.349374 0.4 0.367182
v 0.351069 0.4 0.370255
v 0.354143 0.4 0.375594
v 0.35423 0.4 0.37574
v 0.355736 0.4 0.378252
v 0.357339 0.4 0.380856
v 0.360656 0.4 0.386038
v 0.367651 0.4 0.396164
v 0.370037 0.4 0.399398
v 0.362629 0.4 0.388999
v 0.364094 0.4 0.391141
v 0.371329 0.4 0.401107
v 0.375119 0.4 0.405959
v 0.37902 0.4 0.410718
v 0.38303 0.4 0.415383
v 0.377941 0.4 0.409425
v 0.386325 0.4 0.419055
v 0.387151 0.4 0.419955
v 0.391382 0.4 0.424433
v 0.395166 0.4 0.428266
v 0.400145 0.4 0.433078
v 0.404445 0.4 0.437036
v 0.395714 0.4 0.428808
v 0.404674 0.4 0.437242
v 0.409301 0.4 0.4413
v 0.414026 0.4 0.445252
v 0.418841 0.4 0.449091
v 0.423742 0.4 0.452813
v 0.428727 0.4 0.456419
v 0.433797 0.4 0.459907
v 0.434683 0.4 0.460499
v 0.424227 0.4 0.453172
v 0.426019 0.4 0.454482
v 0.438952 0.4 0.463278
v 0.444183 0.4 0.466527
v 0.445483 0.4 0.467309
v 0.452552 0.4 0.471381
v 0.454859 0.4 0.472648
v 0.449486 0.4 0.469651
v 0.456602 0.4 0.473585
v 0.460302 0.4 0.475519
v 0.465816 0.4 0.478264
v 0.468012 0.4 0.479313
v 0.471392 0.4 0.480879
v 0.477024 0.4 0.48336
v 0.482711 0.4 0.485708
v 0.488452 0.4 0.487922
v 0.479688 0.4 0.484479
v 0.491601 0.4 0.489072
v 0.494248 0.4 0.490002
v 0.500093 0.4 0.491947
v 0.503724 0.4 0.493079
v 0.505977 0.4 0.493753
v 0.5119 0.4 0.495419
v 0.516027 0.4 0.496492
v 0.51786 0.4 0.496946
v 0.523859 0.4 0.498333
v 0.528482 0.4 0.499302
v 0.529892 0.4 0.499581
v 0.535947 0.4 0.500685
v 0.542026 0.4 0.501647
v 0.548141 0.4 0.502468
v 0.553727 0.4 0.503091
v 0.541058 0.4 0.501504
v 0.341421 0.4 0.132736
v 0.406652 0.342701 0.045
v 0.406652 0.35 0.0449997
v 0.558847 0.325 0.0437795
v 0.597291 0.325 0.0436163
v 0.635031 0.325 0.0434058
v 0.669249 0.325 0.0431126
v 0.701975 0.325 0.0427055
v 0.736674 0.325 0.0421231
v 0.524643 0.33806 0.0439278
v 0.522975 0.334144 0.043943
v 0.521111 0.330115 0.0439599
v 0.519128 0.326133 0.0439779
v 0.415425 0.35 0.0449203
v 0.404023 0.4 0.0473442
v 0.401746 0.4 0.0494274
v 0.396262 0.4 0.0546531
v 0.393049 0.4 0.0578592
v 0.388805 0.4 0.0622689
v 0.384749 0.4 0.0666834
v 0.381661 0.4 0.0701852
v 0.376866 0.4 0.0758813
v 0.374847 0.4 0.0783818
v 0.369416 0.4 0.0854331
v 0.36837 0.4 0.08685
v 0.365382 0.4 0.0910104
v 0.362242 0.4 0.0955753
v 0.356476 0.4 0.104539
v 0.354177 0.4 0.10835
v 0.351076 0.4 0.113734
v 0.350749 0.4 0.114319
v 0.346055 0.4 0.123137
v 0.344369 0.4 0.126516
v 0.101044 0.281124 0.284356
v 0.102108 0.281941 0.285031
v 0.098665 0.279265 0.282922
v 0.0717835 0.255796 0.283749
v 0.0720136 0.256077 0.28326
v 0.0712379 0.255053 0.285139
v 0.0874593 0.280967 0.045
v 0.0847001 0.277066 0.045
v 0.0895971 0.283883 0.045
v 0.0936079 0.289122 0.045
v 0.08159 0.272472 0.045
v 0.0800164 0.270062 0.045
v 0.0759937 0.263619 0.045
v 0.0706649 0.254391 0.045
v 0.0672114 0.247927 0.045
v 0.0655998 0.244766 0.045
v 0.0633475 0.240178 0.045
v 0.0498253 0.207335 0.045
v 0.0479433 0.20182 0.045
v 0.051967 0.213276 0.045
v 0.0406889 0.177281 0.045
v 0.0392375 0.171571 0.045
v 0.0374664 0.164127 0.045
v 0.0345211 0.150329 0.045
v 0.0330948 0.14285 0.045
v 0.0318598 0.135844 0.045
v 0.0283938 0.112522 0.045
v 0.0274232 0.104603 0.045
v 0.0294907 0.12062 0.045
v 0.0242362 0.0699324 0.045
v 0.0231422 0.0511304 0.045
v 0.378737 0.399586 0.045
v 0.366945 0.399146 0.045
v 0.386434 0.399786 0.045
v 0.392531 0.399896 0.045
v 0.348383 0.398102 0.045
v 0.339277 0.397421 0.045
v 0.352113 0.398348 0.045
v 0.3307 0.396672 0.045
v 0.313852 0.394873 0.045
v 0.302631 0.393417 0.045
v 0.297796 0.392721 0.045
v 0.291026 0.391675 0.045
v 0.282492 0.390232 0.045
v 0.267901 0.387419 0.045
v 0.257994 0.385241 0.045
v 0.253987 0.384294 0.045
v 0.247566 0.382694 0.045
v 0.240715 0.380869 0.045
v 0.237425 0.379948 0.045
v 0.228052 0.377154 0.045
v 0.215967 0.373156 0.045
v 0.208686 0.370514 0.045
v 0.217988 0.373857 0.045
v 0.20443 0.368883 0.045
v 0.199656 0.366973 0.045
v 0.193413 0.364341 0.045
v 0.190896 0.363235 0.045
v 0.182889 0.359534 0.045
v 0.172834 0.354466 0.045
v 0.166201 0.350843 0.045
v 0.174172 0.355169 0.045
v 0.163223 0.349138 0.045
v 0.158487 0.346322 0.045
v 0.154035 0.343551 0.045
v 0.121115 0.318562 0.045
v 0.117397 0.315133 0.045
v 0.123643 0.320812 0.045
v 0.151025 0.341607 0.045
v 0.145249 0.337704 0.045
v 0.128806 0.325214 0.045
v 0.130126 0.326299 0.045
v 0.111384 0.309263 0.045
v 0.10672 0.304409 0.045
v 0.113758 0.31163 0.045
v 0.100044 0.296952 0.045
v 0.0220286 0.0101356 0.045
v 0.0219868 0 0.045
v 0.143813 0.336697 0.045
v 0.136845 0.331592 0.045
v 0.227567 0.377002 0.045
v 0.27972 0.389732 0.045
v 0.326753 0.39629 0.045
v 0.0224006 0.0312333 0.045
v 0.0256677 0.0877301 0.045
v 0.0441828 0.189833 0.045
v 0.0607958 0.234722 0.045
v 0.0562516 0.224234 0.045
v 0.205825 -0.224192 0.373993
v 0.219293 -0.224596 0.379859
v 0.232762 -0.225 0.385724
v 0.373595 -0.4 0.0799637
v 0.370472 -0.4 0.0840234
v 0.342909 -0.4 0.129544
v 0.341421 -0.4 0.132736
v 0.344369 -0.4 0.126516
v 0.344248 -0.4 0.126763
v 0.0596802 -0.232243 0.045
v 0.0621275 -0.237605 0.045
v 0.0837813 -0.275731 0.045
v 0.0898615 -0.284238 0.045
v 0.0962168 -0.292377 0.045
v 0.0755425 -0.26287 0.045
v 0.0779709 -0.266838 0.045
v 0.0671457 -0.2478 0.045
v 0.0724265 -0.257536 0.045
v 0.0528816 -0.215714 0.045
v 0.0573722 -0.22692 0.045
v 0.0486588 -0.203951 0.045
v 0.0410356 -0.178598 0.045
v 0.0447082 -0.191594 0.045
v 0.0292903 -0.119199 0.045
v 0.0317646 -0.135281 0.045
v 0.0345545 -0.150498 0.045
v 0.0376482 -0.164917 0.045
v 0.027145 -0.102175 0.045
v 0.0253441 -0.0841215 0.045
v 0.0239055 -0.0649344 0.045
v 0.0228496 -0.044491 0.045
v 0.0222008 -0.0226546 0.045
v 0.391235 -0.4 0.0597187
v 0.386972 -0.4 0.0642389
v 0.376866 -0.4 0.0758813
v 0.377062 -0.4 0.075642
v 0.384749 -0.4 0.0666834
v 0.383985 -0.4 0.067538
v 0.393049 -0.4 0.0578592
v 0.398794 -0.4 0.0522024
v 0.365265 -0.39907 0.045
v 0.369411 -0.399252 0.045
v 0.351233 -0.398292 0.045
v 0.314539 -0.394955 0.045
v 0.317315 -0.395279 0.045
v 0.326753 -0.39629 0.045
v 0.333881 -0.396962 0.045
v 0.301495 -0.393257 0.045
v 0.26871 -0.387587 0.045
v 0.271948 -0.388245 0.045
v 0.27972 -0.389732 0.045
v 0.286384 -0.390908 0.045
v 0.258151 -0.385277 0.045
v 0.247566 -0.382694 0.045
v 0.237425 -0.379948 0.045
v 0.244964 -0.382016 0.045
v 0.227567 -0.377002 0.045
v 0.232353 -0.378467 0.045
v 0.217988 -0.373857 0.045
v 0.220292 -0.37464 0.045
v 0.208752 -0.370539 0.045
v 0.199656 -0.366973 0.045
v 0.190896 -0.363235 0.045
v 0.197707 -0.366168 0.045
v 0.182403 -0.3593 0.045
v 0.187133 -0.361531 0.045
v 0.174172 -0.355169 0.045
v 0.177006 -0.356629 0.045
v 0.166201 -0.350843 0.045
v 0.167305 -0.351462 0.045
v 0.158008 -0.34603 0.045
v 0.116969 -0.314729 0.045
v 0.123643 -0.320812 0.045
v 0.130126 -0.326299 0.045
v 0.13236 -0.328102 0.045
v 0.136848 -0.331595 0.045
v 0.140553 -0.334355 0.045
v 0.143813 -0.336697 0.045
v 0.149097 -0.340329 0.045
v 0.124504 -0.321563 0.045
v 0.105601 -0.303202 0.045
v 0.109745 -0.307589 0.045
v 0.100044 -0.296952 0.045
v 0.10282 -0.30013 0.045
v 0.355877 -0.4 0.105517
v 0.352818 -0.4 0.110672
v 0.358341 -0.4 0.101551
v 0.349817 -0.4 0.116006
v 0.347672 -0.4 0.120006
v 0.350749 -0.4 0.114319
v 0.362415 -0.4 0.0953187
v 0.361496 -0.4 0.0966915
v 0.364228 -0.4 0.0926647
v 0.369416 -0.4 0.0854331
v 0.401544 -0.4 0.0496148
v 0.388458 -0.399827 0.045
v 0.111384 -0.309263 0.045
v 0.151025 -0.341607 0.045
v 0.291026 -0.391675 0.045
v 0.339277 -0.397421 0.045
v 0.378737 -0.399586 0.045
v 0.0330948 -0.14285 0.045
v 0.0392375 -0.171571 0.045
v 0.0469115 -0.198667 0.045
v 0.0800164 -0.270062 0.045
v 0.225308 -0.243103 0.388139
v 0.219962 -0.242108 0.385654
v 0.152031 -0.22806 0.352382
v 0.144479 -0.22634 0.348578
v 0.177329 -0.233596 0.36505
v 0.164189 -0.230765 0.358492
v 0.160777 -0.230014 0.356781
v 0.152385 -0.22814 0.35256
v 0.204555 -0.23915 0.378357
v 0.199472 -0.238145 0.375909
v 0.215874 -0.241336 0.383737
v 0.245446 -0.24671 0.397253
v 0.23948 -0.245664 0.394595
v 0.258326 -0.248901 0.402867
v 0.989041 -0.291372 0.464573
v 0.268151 -0.250514 0.407028
v 0.266048 -0.250173 0.406146
v 0.235418 -0.244942 0.392764
v 0.196959 -0.237643 0.374692
v 0.187719 -0.235765 0.370181
v 0.178614 -0.233867 0.365688
v 1.9193 -0.292042 0.393715
v 1.94576 -0.284786 0.394384
v 2.35349 -0.0808188 0.431136
v 1.62482 -0.350676 0.389813
v 1.6593 -0.345499 0.390036
v 1.85964 -0.306971 0.39246
v 1.85967 -0.306963 0.39246
v 1.89003 -0.299602 0.393058
v 1.9181 -0.292362 0.393686
v 1.87498 -0.303311 0.392752
v 1.88942 -0.299756 0.393045
v 1.82882 -0.313977 0.391928
v 1.7969 -0.32078 0.391449
v 1.82818 -0.314119 0.391918
v 1.6987 -0.339117 0.390348
v 1.72665 -0.334267 0.390611
v 1.7639 -0.327358 0.391021
v 1.79554 -0.321061 0.39143
v 1.73387 -0.332969 0.390685
v 1.76168 -0.327785 0.390994
v 1.66233 -0.345026 0.390058
v 1.69672 -0.33945 0.390331
v 1.54609 -0.361192 0.389452
v 1.58047 -0.356813 0.389586
v 1.58604 -0.356072 0.389611
v 1.62056 -0.351291 0.389788
v 1.50489 -0.366033 0.389333
v 1.539 -0.362056 0.389428
v 1.46242 -0.370587 0.389255
v 1.4961 -0.36701 0.389314
v 1.41875 -0.37484 0.389214
v 1.45175 -0.371666 0.389241
v 1.37376 -0.378792 0.389209
v 1.40591 -0.376011 0.389208
v 1.32757 -0.382424 0.38924
v 1.35855 -0.380034 0.389215
v 1.27934 -0.385785 0.389305
v 1.31095 -0.383631 0.389258
v 2.16371 -0.204575 0.404344
v 2.1669 -0.203037 0.404583
v 2.17697 -0.198106 0.405363
v 2.26662 -0.147024 0.414713
v 2.26701 -0.146766 0.414767
v 2.30931 -0.116996 0.421457
v 2.31196 -0.114977 0.421949
v 2.3301 -0.100673 0.42559
v 2.33548 -0.0962566 0.426772
v 2.33991 -0.092551 0.427786
v 2.34797 -0.0856581 0.429727
v 2.3226 -0.106704 0.424021
v 2.32608 -0.103922 0.424739
v 2.31967 -0.109012 0.423434
v 2.28698 -0.133247 0.417678
v 2.29558 -0.127134 0.419063
v 2.29746 -0.12578 0.419375
v 2.27563 -0.141046 0.415974
v 2.28136 -0.137144 0.416818
v 2.28247 -0.136378 0.416986
v 2.21732 -0.176831 0.408964
v 2.21898 -0.175902 0.409131
v 2.24022 -0.163561 0.411417
v 2.25103 -0.156962 0.412699
v 2.25134 -0.156771 0.412737
v 2.22799 -0.170767 0.410064
v 2.23448 -0.16698 0.410769
v 2.23546 -0.166397 0.410878
v 2.18535 -0.193891 0.406046
v 2.19953 -0.186522 0.407275
v 2.20187 -0.185278 0.407487
v 2.18106 -0.196058 0.405693
v 2.05031 -0.251531 0.397936
v 2.06324 -0.246827 0.398503
v 2.10871 -0.229052 0.400794
v 2.12131 -0.223754 0.401523
v 2.13659 -0.217088 0.40247
v 2.14199 -0.214672 0.402822
v 2.14774 -0.212056 0.403209
v 2.15025 -0.210902 0.403381
v 2.16189 -0.205441 0.404211
v 2.12275 -0.223138 0.401609
v 2.12781 -0.22095 0.401917
v 2.08006 -0.240485 0.399293
v 2.0856 -0.238338 0.399568
v 2.09448 -0.234833 0.400023
v 2.09983 -0.232683 0.400307
v 2.10711 -0.229713 0.400704
v 2.06545 -0.246009 0.398603
v 2.07752 -0.241458 0.39917
v 1.98954 -0.271816 0.395674
v 1.99815 -0.269112 0.395959
v 2.00089 -0.268241 0.396051
v 2.02048 -0.261846 0.396749
v 2.02608 -0.259962 0.39696
v 2.03566 -0.256687 0.397333
v 2.04002 -0.25517 0.397508
v 2.0051 -0.266888 0.396196
v 2.01596 -0.263344 0.396583
v 1.95782 -0.281339 0.394715
v 1.97244 -0.277033 0.395141
v 1.9747 -0.276355 0.395209
v 1.94752 -0.28429 0.394431
v 2.35026 -0.0836559 0.430306
v 1.26044 -0.386988 0.389339
v 1.25069 -0.387585 0.389358
v 1.2248 -0.389089 0.389415
v 1.19686 -0.390588 0.389485
v 1.16847 -0.391982 0.389564
v 1.20829 -0.38999 0.389455
v 1.19971 -0.390441 0.389477
v 1.15447 -0.392624 0.389606
v 1.14712 -0.392948 0.389629
v 1.12501 -0.393876 0.3897
v 1.1103 -0.394453 0.38975
v 1.13961 -0.393271 0.389652
v 1.09895 -0.394876 0.389789
v 1.09289 -0.395095 0.389811
v 1.08052 -0.395525 0.389856
v 1.09547 -0.395003 0.389802
v 1.06545 -0.39602 0.389912
v 1.05027 -0.396487 0.389971
v 1.04168 -0.396737 0.390005
v 1.03698 -0.396869 0.390024
v 0.982649 -0.398192 0.390251
v 0.979362 -0.398259 0.390265
v 0.921771 -0.399229 0.390527
v 0.919994 -0.399253 0.390535
v 0.891807 -0.399576 0.390669
v 0.85908 -0.399836 0.39083
v 0.827926 -0.399971 0.156025
v 0.825944 -0.399976 0.150511
v 0.829878 -0.399966 0.161867
v 0.829785 -0.399966 0.161578
v 0.831688 -0.39996 0.167742
v 0.833357 -0.399955 0.173649
v 0.834891 -0.39995 0.179609
v 0.837529 -0.399941 0.191603
v 0.83637 -0.399945 0.185999
v 0.83628 -0.399945 0.185589
v 0.839608 -0.399933 0.203749
v 0.838768 -0.399936 0.19842
v 0.838638 -0.399937 0.197656
v 0.84112 -0.399927 0.216018
v 0.840565 -0.399929 0.210942
v 0.840435 -0.39993 0.209874
v 0.842055 -0.399923 0.228295
v 0.841761 -0.399924 0.223536
v 0.84166 -0.399925 0.222158
v 0.842412 -0.399922 0.240568
v 0.84235 -0.399922 0.236173
v 0.842306 -0.399922 0.234431
v 0.84219 -0.399922 0.252844
v 0.842326 -0.399922 0.248823
v 0.842373 -0.399922 0.246705
v 0.841389 -0.399926 0.265131
v 0.84169 -0.399925 0.261458
v 0.841862 -0.399924 0.258986
v 0.840008 -0.399931 0.277424
v 0.840445 -0.39993 0.274047
v 0.840771 -0.399928 0.271283
v 0.838061 -0.399939 0.289591
v 0.838601 -0.399937 0.286562
v 0.839104 -0.399935 0.283527
v 0.836878 -0.399943 0.295619
v 0.835557 -0.399948 0.301605
v 0.836156 -0.399946 0.298974
v 0.834096 -0.399953 0.307553
v 0.832492 -0.399958 0.313479
v 0.833112 -0.399956 0.311253
v 0.830747 -0.399963 0.319373
v 0.82886 -0.399969 0.325236
v 0.829478 -0.399967 0.32337
v 0.826828 -0.399974 0.331077
v 0.824651 -0.399979 0.336891
v 0.825264 -0.399978 0.335298
v 0.822352 -0.399984 0.342623
v 0.819926 -0.399989 0.348283
v 0.820485 -0.399988 0.34701
v 0.817373 -0.399993 0.353872
v 0.814693 -0.399996 0.359393
v 0.815148 -0.399996 0.35848
v 0.811885 -0.399999 0.364847
v 0.858841 -0.399837 0.390831
v 0.808949 -0.400002 0.370235
v 0.809261 -0.400001 0.369677
v 0.824987 -0.399978 0.391002
v 0.805883 -0.400003 0.375559
v 0.802686 -0.400003 0.38082
v 0.802838 -0.400003 0.380576
v 0.799357 -0.400002 0.38602
v 0.34118 -0.4 0.133264
v 0.336556 -0.4 0.144051
v 0.336173 -0.4 0.145009
v 0.332233 -0.4 0.155569
v 0.331744 -0.4 0.156984
v 0.32845 -0.4 0.167292
v 0.327903 -0.4 0.16916
v 0.325224 -0.4 0.179168
v 0.324658 -0.4 0.181509
v 0.322558 -0.4 0.191185
v 0.322018 -0.4 0.194001
v 0.320457 -0.4 0.20332
v 0.319988 -0.4 0.206606
v 0.318929 -0.4 0.215528
v 0.318575 -0.4 0.219295
v 0.31838 -0.4 0.221661
v 0.317975 -0.4 0.227808
v 0.31778 -0.4 0.232038
v 0.317714 -0.4 0.233958
v 0.317816 -0.4 0.231113
v 0.317597 -0.4 0.240109
v 0.317605 -0.4 0.244805
v 0.317625 -0.4 0.246262
v 0.317797 -0.4 0.252417
v 0.318053 -0.4 0.257565
v 0.318114 -0.4 0.258569
v 0.318575 -0.4 0.264707
v 0.31912 -0.4 0.270288
v 0.319179 -0.4 0.27083
v 0.319927 -0.4 0.276937
v 0.320818 -0.4 0.283029
v 0.321853 -0.4 0.289102
v 0.322553 -0.4 0.29279
v 0.323028 -0.4 0.295145
v 0.323103 -0.4 0.295503
v 0.324345 -0.4 0.301154
v 0.325802 -0.4 0.307132
v 0.326009 -0.4 0.307935
v 0.3274 -0.4 0.313078
v 0.329138 -0.4 0.318988
v 0.329517 -0.4 0.320212
v 0.331013 -0.4 0.324852
v 0.335171 -0.4 0.336432
v 0.337454 -0.4 0.34215
v 0.333024 -0.4 0.330666
v 0.333618 -0.4 0.332303
v 0.338302 -0.4 0.344181
v 0.34242 -0.4 0.35342
v 0.343558 -0.4 0.355816
v 0.339872 -0.4 0.347816
v 0.345097 -0.4 0.358959
v 0.347904 -0.4 0.364434
v 0.349374 -0.4 0.367182
v 0.357091 -0.4 0.380457
v 0.360398 -0.4 0.385645
v 0.353905 -0.4 0.37519
v 0.355736 -0.4 0.378252
v 0.362629 -0.4 0.388999
v 0.363827 -0.4 0.390754
v 0.367376 -0.4 0.395784
v 0.371045 -0.4 0.400734
v 0.374826 -0.4 0.405592
v 0.370037 -0.4 0.399398
v 0.377941 -0.4 0.409425
v 0.38272 -0.4 0.41503
v 0.386325 -0.4 0.419055
v 0.391056 -0.4 0.424096
v 0.395166 -0.4 0.428266
v 0.399802 -0.4 0.432755
v 0.404324 -0.4 0.436928
v 0.413664 -0.4 0.444956
v 0.41414 -0.4 0.445345
v 0.408945 -0.4 0.440995
v 0.423364 -0.4 0.452532
v 0.424227 -0.4 0.453172
v 0.428343 -0.4 0.456147
v 0.433408 -0.4 0.459645
v 0.434683 -0.4 0.460499
v 0.449077 -0.4 0.469416
v 0.454445 -0.4 0.472423
v 0.443782 -0.4 0.466284
v 0.445483 -0.4 0.467309
v 0.456602 -0.4 0.473585
v 0.459885 -0.4 0.475305
v 0.465395 -0.4 0.47806
v 0.468012 -0.4 0.479313
v 0.470964 -0.4 0.480684
v 0.47659 -0.4 0.483175
v 0.479688 -0.4 0.484479
v 0.482273 -0.4 0.485533
v 0.488012 -0.4 0.487758
v 0.491601 -0.4 0.489072
v 0.493807 -0.4 0.48985
v 0.499646 -0.4 0.491804
v 0.503724 -0.4 0.493079
v 0.505524 -0.4 0.493619
v 0.511444 -0.4 0.495296
v 0.516027 -0.4 0.496492
v 0.523403 -0.4 0.498233
v 0.528482 -0.4 0.499302
v 0.535482 -0.4 0.500606
v 0.541058 -0.4 0.501504
v 0.553468 -0.4 0.503065
v 0.554304 -0.4 0.503148
v 0.547656 -0.4 0.502408
v 0.541557 -0.4 0.501578
v 0.529431 -0.4 0.499491
v 0.517404 -0.4 0.496834
v 0.438557 -0.4 0.463026
v 0.418471 -0.4 0.448802
v 0.39538 -0.4 0.428478
v 0.386833 -0.4 0.41961
v 0.378717 -0.4 0.410357
v 0.35084 -0.4 0.369845
v 0.319621 -0.4 0.209415
v 0.321436 -0.4 0.197242
v 0.323821 -0.4 0.185158
v 0.326767 -0.4 0.173213
v 0.330273 -0.4 0.161407
v 0.334327 -0.4 0.149784
v 0.338921 -0.4 0.138367
v 0.406652 -0.35 0.0449994
v 0.749893 -0.35 0.0418819
v 0.563003 -0.4 0.503858
v 0.564929 -0.4 0.503976
v 0.565907 -0.4 0.504031
v 0.57172 -0.4 0.504279
v 0.57558 -0.4 0.504372
v 0.578701 -0.4 0.504406
v 0.586245 -0.4 0.504335
v 0.589172 -0.4 0.504249
v 0.58481 -0.4 0.504365
v 0.591498 -0.4 0.504157
v 0.596895 -0.4 0.503865
v 0.604267 -0.4 0.503285
v 0.607512 -0.4 0.502963
v 0.61525 -0.4 0.502031
v 0.618092 -0.4 0.50163
v 0.623878 -0.4 0.500715
v 0.616979 -0.4 0.501791
v 0.628608 -0.4 0.499868
v 0.629603 -0.4 0.499679
v 0.632457 -0.4 0.499113
v 0.639038 -0.4 0.497682
v 0.642109 -0.4 0.496953
v 0.649376 -0.4 0.495072
v 0.654467 -0.4 0.493621
v 0.659602 -0.4 0.492045
v 0.666099 -0.4 0.489882
v 0.669688 -0.4 0.488606
v 0.674294 -0.4 0.486882
v 0.666648 -0.4 0.489691
v 0.67963 -0.4 0.48476
v 0.682385 -0.4 0.483611
v 0.678623 -0.4 0.485171
v 0.689412 -0.4 0.480512
v 0.693206 -0.4 0.478734
v 0.698219 -0.4 0.476271
v 0.690363 -0.4 0.480073
v 0.702723 -0.4 0.473943
v 0.705944 -0.4 0.47221
v 0.701841 -0.4 0.474408
v 0.712043 -0.4 0.468767
v 0.713028 -0.4 0.468191
v 0.7239 -0.4 0.461435
v 0.730014 -0.4 0.457301
v 0.721148 -0.4 0.463215
v 0.734428 -0.4 0.454157
v 0.735368 -0.4 0.45347
v 0.738633 -0.4 0.451031
v 0.742314 -0.4 0.448186
v 0.746996 -0.4 0.444413
v 0.749081 -0.4 0.442675
v 0.74459 -0.4 0.446374
v 0.75436 -0.4 0.438106
v 0.755079 -0.4 0.437463
v 0.763715 -0.4 0.42937
v 0.76823 -0.4 0.424834
v 0.762871 -0.4 0.430193
v 0.772633 -0.4 0.420189
v 0.774206 -0.4 0.418474
v 0.770367 -0.4 0.422608
v 0.777546 -0.4 0.414726
v 0.779967 -0.4 0.411918
v 0.781092 -0.4 0.410584
v 0.784396 -0.4 0.406562
v 0.789074 -0.4 0.400578
v 0.790912 -0.4 0.398124
v 0.406652 -0.327554 0.045
v 0.628632 -0.325 0.0434304
v 0.593853 -0.325 0.0435973
v 0.557773 -0.325 0.0437612
v 0.513059 -0.35 0.0440331
v 0.475958 -0.35 0.0443702
v 0.438857 -0.35 0.0447074
v 0.66182 -0.325 0.043194
v 0.69337 -0.325 0.0428354
v 0.727061 -0.325 0.0423107
v 1.67093 0.270969 0.455649
v 1.6735 0.270732 0.455607
v 1.6827 0.269868 0.455457
v 1.69187 0.268982 0.455305
v 1.65489 0.27241 0.455905
v 1.63968 0.273713 0.456142
v 1.64536 0.273233 0.456054
v 1.61691 0.275553 0.456489
v 1.60652 0.276351 0.456643
v 1.59755 0.277019 0.456775
v 1.57876 0.278358 0.457047
v 1.56602 0.279219 0.457227
v 1.57793 0.278415 0.457058
v 1.54904 0.280313 0.457462
v 1.53791 0.280997 0.457614
v 1.52386 0.281824 0.457803
v 1.49098 0.283605 0.458232
v 1.51752 0.282184 0.457887
v 1.47621 0.284338 0.458419
v 1.4626 0.284977 0.458589
v 1.43327 0.286245 0.458946
v 1.43012 0.286372 0.458984
v 1.40706 0.287254 0.459255
v 1.38953 0.287868 0.459457
v 1.38196 0.288117 0.459543
v 1.30039 0.290274 0.460428
v 1.33168 0.289559 0.460097
v 1.34468 0.289222 0.459957
v 2.3492 0.0821842 0.433614
v 2.35311 0.0796122 0.433352
v 2.3003 0.111662 0.436643
v 2.31006 0.106154 0.436073
v 2.33197 0.0931245 0.434733
v 2.33336 0.0922642 0.434645
v 2.32475 0.0975211 0.435184
v 2.3391 0.0886743 0.434277
v 2.34615 0.0841703 0.433817
v 2.31745 0.101864 0.435631
v 2.31706 0.102089 0.435654
v 2.29502 0.114573 0.436945
v 2.03924 0.211616 0.447534
v 2.05449 0.207626 0.447065
v 2.03345 0.213088 0.447709
v 2.03204 0.213442 0.447751
v 2.01971 0.216488 0.448114
v 1.87009 0.246293 0.451899
v 1.87132 0.246094 0.451872
v 1.85368 0.248882 0.452255
v 1.93223 0.235369 0.450454
v 1.94261 0.233357 0.450196
v 1.9254 0.236662 0.450621
v 2.00945 0.218942 0.44841
v 2.00041 0.221051 0.448665
v 1.98834 0.223784 0.448999
v 1.98133 0.22533 0.44919
v 1.98459 0.224614 0.449101
v 1.96573 0.228666 0.449604
v 1.95888 0.230088 0.449782
v 1.9046 0.240455 0.451116
v 1.90718 0.239997 0.451056
v 1.8948 0.242169 0.451343
v 1.88915 0.243137 0.451473
v 1.91897 0.237857 0.450776
v 1.87369 0.24571 0.45182
v 1.83623 0.251511 0.452623
v 1.8439 0.250371 0.452463
v 1.81901 0.253983 0.452976
v 1.81297 0.254823 0.453098
v 1.80186 0.256332 0.453318
v 1.79263 0.257551 0.453498
v 1.78084 0.259063 0.453724
v 1.76818 0.260632 0.453962
v 1.76567 0.260935 0.454009
v 1.74747 0.263081 0.454342
v 1.73813 0.264139 0.45451
v 2.28302 0.121001 0.437613
v 1.27457 0.290766 0.460694
v 1.35303 0.288992 0.459866
v 1.71 0.267161 0.455
v 1.25965 0.291012 0.460844
v 1.25158 0.291133 0.460925
v 1.24167 0.291271 0.461022
v 1.20822 0.29165 0.461347
v 1.2026 0.291701 0.4614
v 1.1742 0.291906 0.461666
v 1.13962 0.292037 0.461982
v 1.13771 0.292041 0.461999
v 1.10446 0.292047 0.462293
v 1.15384 0.291998 0.461853
v 1.10318 0.292045 0.462304
v 1.06923 0.291936 0.462596
v 1.05131 0.291837 0.462747
v 1.03239 0.2917 0.462905
v 0.423151 0.249665 0.449614
v 0.4165 0.248893 0.44768
v 0.429782 0.250426 0.451498
v 0.431992 0.250677 0.452116
v 0.628163 0.268964 0.484281
v 0.61995 0.268335 0.483782
v 0.616024 0.268031 0.483521
v 0.609552 0.267525 0.483059
v 0.603858 0.267075 0.482619
v 0.595604 0.266414 0.481922
v 0.589837 0.265945 0.481395
v 0.583309 0.265409 0.480756
v 0.481208 0.255996 0.46444
v 0.476274 0.255487 0.463334
v 0.456837 0.253429 0.458691
v 0.456109 0.253351 0.458508
v 0.449555 0.252637 0.456837
v 0.468901 0.254716 0.461626
v 0.442983 0.251911 0.45511
v 0.436409 0.251176 0.453335
v 0.444293 0.252057 0.455458
v 0.333401 0.238549 0.420609
v 0.320746 0.236884 0.416198
v 0.372213 0.243526 0.433798
v 0.36247 0.242298 0.430555
v 0.415578 0.248785 0.447408
v 0.403136 0.247314 0.443663
v 0.389681 0.245688 0.43946
v 0.376129 0.244015 0.435086
v 0.394935 0.246327 0.441119
v 0.358132 0.241746 0.429093
v 0.346601 0.240266 0.425166
v 0.334791 0.238731 0.421092
v 0.98914 0.29091 0.464361
v 0.978663 0.290367 0.465695
v 0.976138 0.290236 0.466013
v 0.958907 0.289335 0.46813
v 0.953013 0.289025 0.468834
v 0.938933 0.288279 0.470476
v 0.931597 0.287887 0.471308
v 0.918713 0.287194 0.472727
v 0.90912 0.286674 0.473749
v 0.898301 0.286084 0.474864
v 0.877628 0.284941 0.47688
v 0.8672 0.284358 0.477836
v 0.886192 0.285417 0.476064
v 0.863746 0.284163 0.478144
v 0.856708 0.283765 0.478756
v 0.855355 0.283689 0.478872
v 0.846151 0.283164 0.479637
v 0.824827 0.281931 0.481274
v 0.822085 0.281771 0.48147
v 0.83553 0.282553 0.480477
v 0.840844 0.282859 0.480063
v 0.817795 0.281519 0.48177
v 0.814087 0.281301 0.482022
v 0.792371 0.280005 0.483368
v 0.781408 0.279339 0.483958
v 0.794297 0.280121 0.483258
v 0.771256 0.278716 0.484449
v 0.770373 0.278661 0.484489
v 0.767705 0.278496 0.484608
v 0.759528 0.277986 0.484946
v 0.742354 0.276899 0.485532
v 0.735963 0.276489 0.485705
v 0.725494 0.275809 0.485934
v 0.672336 0.2722 0.485944
v 0.667661 0.271868 0.485845
v 0.676414 0.272487 0.486016
v 0.70034 0.274136 0.486188
v 0.694715 0.273753 0.486186
v 0.71225 0.274935 0.486121
v 0.688394 0.27332 0.486155
v 0.650714 0.270646 0.485338
v 0.643968 0.27015 0.485068
v 0.652352 0.270766 0.485397
v 0.6644 0.271636 0.485766
v 0.640273 0.269875 0.484904
v 0.629812 0.269089 0.484374
v 0.718058 0.27532 0.486053
v 0.493514 0.257242 0.46707
v 1.1193 0.333014 0.441093
v 1.11268 0.330409 0.442927
v 1.11969 0.333185 0.44097
v 1.12002 0.3334 0.44082
v 1.12014 0.333533 0.440728
v 1.10602 0.327831 0.444693
v 1.10401 0.327062 0.44521
v 1.09791 0.324749 0.446737
v 1.09108 0.322196 0.448373
v 1.08855 0.32126 0.448959
v 1.083 0.319229 0.450206
v 1.076 0.316704 0.451706
v 1.07292 0.315609 0.45234
v 1.06793 0.313849 0.453334
v 1.06075 0.311354 0.454694
v 1.05711 0.310105 0.455352
v 1.05271 0.30861 0.45612
v 1.04535 0.306146 0.457335
v 1.04112 0.304749 0.457997
v 1.02979 0.301081 0.459631
v 1.02958 0.301014 0.459659
v 1.02493 0.299538 0.460273
v 1.01408 0.296158 0.46158
v 1.01397 0.296125 0.461592
v 1.00855 0.294472 0.462179
v 0.812009 0.39804 0.394019
v 0.826506 0.396186 0.396554
v 0.843112 0.393954 0.399405
v 0.855791 0.39217 0.401546
v 0.872507 0.38971 0.404319
v 0.884402 0.387882 0.406259
v 0.886948 0.387483 0.40667
v 0.900531 0.3853 0.408843
v 0.912276 0.383341 0.410693
v 0.927043 0.380781 0.412979
v 0.939352 0.378563 0.414853
v 0.963959 0.373885 0.418511
v 0.965555 0.37357 0.418744
v 0.952036 0.376193 0.416753
v 0.93973 0.378493 0.41491
v 0.986655 0.369266 0.421785
v 0.990795 0.368391 0.422373
v 1.01496 0.36306 0.425746
v 1.02789 0.360041 0.427519
v 1.00827 0.364573 0.424822
v 1.03788 0.357625 0.428874
v 1.04595 0.355618 0.429961
v 1.05937 0.352153 0.431766
v 1.07682 0.347396 0.434118
v 1.07913 0.346743 0.434432
v 1.0906 0.343404 0.436013
v 1.09673 0.341546 0.436882
v 1.10228 0.339816 0.437688
v 1.1116 0.336789 0.439111
v 1.11971 0.333997 0.44047
v 1.11999 0.333868 0.440536
v 1.12011 0.333761 0.440592
v 2.35586 -0.0553547 0.517092
v 0.0700954 0.252919 0.28877
v 0.753679 0.325 0.0450719
v 0.761154 0.325 0.0518157
v 0.768448 0.325 0.0590059
v 0.775542 0.325 0.0666348
v 0.782414 0.325 0.0746898
v 0.789038 0.325 0.0831519
v 0.795387 0.325 0.0919949
v 0.80143 0.325 0.101184
v 0.807135 0.325 0.110673
v 0.812467 0.325 0.120406
v 0.817391 0.325 0.130315
v 0.82176 0.325 0.140057
v 0.825612 0.325 0.149636
v 0.828311 0.325 0.157145
v 0.831522 0.325 0.167196
v 0.834328 0.325 0.177379
v 0.836725 0.325 0.187678
v 0.838707 0.325 0.198075
v 0.840269 0.325 0.208555
v 0.841408 0.325 0.2191
v 0.842121 0.325 0.229693
v 0.842404 0.325 0.240317
v 0.842257 0.325 0.250955
v 0.841677 0.325 0.26159
v 0.840666 0.325 0.272201
v 0.839223 0.325 0.282769
v 0.837351 0.325 0.293277
v 0.835051 0.325 0.303706
v 0.832327 0.325 0.314039
v 0.829183 0.325 0.324259
v 0.825622 0.325 0.334349
v 0.821651 0.325 0.344292
v 0.817274 0.325 0.35407
v 0.812499 0.325 0.363668
v 0.807332 0.325 0.373069
v 0.801781 0.325 0.382257
v 0.795898 0.325 0.391153
v 0.789521 0.325 0.399987
v 0.783007 0.325 0.408274
v 0.776158 0.325 0.416301
v 0.768984 0.325 0.424054
v 0.761496 0.325 0.43152
v 0.753705 0.325 0.438686
v 0.745623 0.325 0.445538
v 0.737262 0.325 0.452065
v 0.728636 0.325 0.458255
v 0.719757 0.325 0.464096
v 0.710639 0.325 0.469579
v 0.701296 0.325 0.474693
v 0.691746 0.325 0.479427
v 0.689901 0.325 0.480286
v 0.680125 0.325 0.484556
v 0.670178 0.325 0.488428
v 0.660075 0.325 0.491893
v 0.649832 0.325 0.494947
v 0.639468 0.325 0.497582
v 0.628998 0.325 0.499794
v 0.618439 0.325 0.501579
v 0.60781 0.325 0.502932
v 0.597128 0.325 0.50385
v 0.58641 0.325 0.504331
v 0.575674 0.325 0.504374
v 0.564938 0.325 0.503977
v 0.554304 0.325 0.503148
v 0.544315 0.325 0.501972
v 0.534023 0.325 0.50035
v 0.523792 0.325 0.498319
v 0.513638 0.325 0.495879
v 0.503577 0.325 0.493034
v 0.493627 0.325 0.489787
v 0.483804 0.325 0.486141
v 0.474123 0.325 0.482102
v 0.464602 0.325 0.477673
v 0.455255 0.325 0.472862
v 0.446099 0.325 0.467675
v 0.437149 0.325 0.462119
v 0.42842 0.325 0.456201
v 0.419927 0.325 0.449931
v 0.411685 0.325 0.443317
v 0.403707 0.325 0.43637
v 0.396009 0.325 0.429099
v 0.388602 0.325 0.421515
v 0.381501 0.325 0.41363
v 0.374718 0.325 0.405456
v 0.368264 0.325 0.397005
v 0.362152 0.325 0.38829
v 0.356393 0.325 0.379326
v 0.351229 0.325 0.370541
v 0.346193 0.325 0.361135
v 0.341541 0.325 0.351526
v 0.337281 0.325 0.34173
v 0.333421 0.325 0.331763
v 0.329968 0.325 0.32164
v 0.326928 0.325 0.311378
v 0.324308 0.325 0.300994
v 0.322113 0.325 0.290505
v 0.320346 0.325 0.279928
v 0.319013 0.325 0.269281
v 0.318115 0.325 0.258582
v 0.317656 0.325 0.247847
v 0.317637 0.325 0.237095
v 0.318058 0.325 0.226344
v 0.318921 0.325 0.215612
v 0.320224 0.325 0.204917
v 0.321967 0.325 0.194276
v 0.324147 0.325 0.183709
v 0.326762 0.325 0.173232
v 0.329808 0.325 0.162864
v 0.333281 0.325 0.152622
v 0.337176 0.325 0.142525
v 0.341421 0.325 0.132736
v 0.342916 0.325 0.129528
v 0.347662 0.325 0.120026
v 0.352794 0.325 0.110714
v 0.358304 0.325 0.101609
v 0.364185 0.325 0.0927261
v 0.370427 0.325 0.0840824
v 0.377019 0.325 0.0756944
v 0.383951 0.325 0.0675763
v 0.391213 0.325 0.059742
v 0.398791 0.325 0.0522051
v 0.158187 0.31393 0.125709
v 0.151889 0.307023 0.125487
v 0.14648 0.300721 0.125298
v 0.14316 0.29667 0.125182
v 0.150563 0.305511 0.12544
v 0.141252 0.294275 0.125116
v 0.136201 0.287691 0.124942
v 0.135983 0.287399 0.124934
v 0.133574 0.28412 0.124852
v 0.131325 0.280975 0.124775
v 0.129036 0.27769 0.124697
v 0.126622 0.274132 0.124616
v 0.122324 0.267537 0.124471
v 0.117728 0.26009 0.124318
v 0.113531 0.252902 0.124179
v 0.110537 0.247528 0.124081
v 0.115855 0.256931 0.124256
v 0.109636 0.245866 0.124052
v 0.105628 0.238223 0.123922
v 0.103676 0.234338 0.123859
v 0.101917 0.230742 0.123802
v 0.0979853 0.222344 0.123677
v 0.0949663 0.21553 0.123582
v 0.0926583 0.210083 0.12351
v 0.062661 0.104517 0.122641
v 0.0616805 0.098684 0.122615
v 0.0588043 0.0789084 0.122543
v 0.0578565 0.0711229 0.122519
v 0.06154 0.0978169 0.122612
v 0.061119 0.0951678 0.122601
v 0.0595407 0.0844424 0.122561
v 0.0592895 0.0825987 0.122555
v 0.0571296 0.0644918 0.122502
v 0.0569504 0.0627464 0.122498
v 0.057316 0.0662574 0.122506
v 0.0558997 0.0513031 0.122473
v 0.0557717 0.0497259 0.12247
v 0.0555395 0.0467281 0.122465
v 0.0543017 0.0253097 0.122438
v 0.0542148 0.0230718 0.122436
v 0.0540037 0.0164196 0.122431
v 0.0553944 0.0447519 0.122462
v 0.0546658 0.0330826 0.122445
v 0.0538334 0.00761597 0.122428
v 0.0537866 0 0.122427
v 0.0539137 0.0125565 0.122429
v 0.0900689 0.203704 0.12343
v 0.0888894 0.200697 0.123394
v 0.0875805 0.197281 0.123354
v 0.0856822 0.192168 0.123296
v 0.085192 0.190816 0.123282
v 0.0839858 0.187431 0.123245
v 0.0828832 0.18426 0.123212
v 0.0807093 0.177778 0.123147
v 0.082902 0.184314 0.123213
v 0.0793965 0.173704 0.123109
v 0.0777155 0.168295 0.123059
v 0.0751358 0.159525 0.122984
v 0.0731066 0.152172 0.122926
v 0.0728873 0.15135 0.12292
v 0.0712186 0.144911 0.122873
v 0.0711628 0.144689 0.122871
v 0.0695283 0.138013 0.122826
v 0.0690388 0.135937 0.122812
v 0.0679824 0.131325 0.122783
v 0.06766 0.129879 0.122774
v 0.0651517 0.117926 0.122706
v 0.0644756 0.114459 0.122688
v 0.0665239 0.124628 0.122743
v 0.0654941 0.119638 0.122716
v 0.0639123 0.111478 0.122673
v 0.076611 0.164614 0.123027
v 0.0564777 0.0578841 0.122487
v 0.0605003 0.0911244 0.122585
v 0.0616805 -0.098684 0.122615
v 0.062661 -0.104517 0.122641
v 0.06154 -0.0978169 0.122612
v 0.0578565 -0.0711229 0.122519
v 0.0586598 -0.0777741 0.122539
v 0.0595407 -0.0844424 0.122561
v 0.0605003 -0.0911244 0.122585
v 0.0592895 -0.0825987 0.122555
v 0.0588043 -0.0789084 0.122543
v 0.0564777 -0.0578841 0.122487
v 0.0571296 -0.0644918 0.122502
v 0.057316 -0.0662574 0.122506
v 0.0558997 -0.0513031 0.122473
v 0.0557717 -0.0497259 0.12247
v 0.0555395 -0.0467281 0.122465
v 0.0553944 -0.0447519 0.122462
v 0.0540037 -0.0164196 0.122431
v 0.0542148 -0.0230718 0.122436
v 0.0539137 -0.0125565 0.122429
v 0.0543017 -0.0253097 0.122438
v 0.0546658 -0.0330826 0.122445
v 0.0538334 -0.00761597 0.122428
v 0.0913509 -0.206899 0.12347
v 0.0926583 -0.210083 0.12351
v 0.0888122 -0.200498 0.123392
v 0.0888894 -0.200697 0.123394
v 0.0807093 -0.177778 0.123147
v 0.0828832 -0.18426 0.123212
v 0.0793965 -0.173704 0.123109
v 0.0777155 -0.168295 0.123059
v 0.076611 -0.164614 0.123027
v 0.0751358 -0.159525 0.122984
v 0.0712186 -0.144911 0.122873
v 0.0728873 -0.15135 0.12292
v 0.0711628 -0.144689 0.122871
v 0.0690388 -0.135937 0.122812
v 0.0695283 -0.138013 0.122826
v 0.0679824 -0.131325 0.122783
v 0.06766 -0.129879 0.122774
v 0.0665239 -0.124628 0.122743
v 0.0644756 -0.114459 0.122688
v 0.0651517 -0.117926 0.122706
v 0.0638645 -0.111221 0.122672
v 0.0639123 -0.111478 0.122673
v 0.0839858 -0.187431 0.123245
v 0.0840347 -0.18757 0.123247
v 0.085192 -0.190816 0.123282
v 0.0863738 -0.194053 0.123317
v 0.0875805 -0.197281 0.123354
v 0.0900689 -0.203704 0.12343
v 0.0765865 -0.257137 0.274108
v 0.076133 -0.256768 0.276697
v 0.113531 -0.252902 0.124179
v 0.110537 -0.247528 0.124081
v 0.151889 -0.307023 0.125487
v 0.150563 -0.305511 0.12544
v 0.131325 -0.280975 0.124775
v 0.129036 -0.27769 0.124697
v 0.14648 -0.300721 0.125298
v 0.14316 -0.29667 0.125182
v 0.135983 -0.287399 0.124934
v 0.133574 -0.28412 0.124852
v 0.136201 -0.287691 0.124942
v 0.122324 -0.267537 0.124471
v 0.117728 -0.26009 0.124318
v 0.115855 -0.256931 0.124256
v 0.105628 -0.238223 0.123922
v 0.103676 -0.234338 0.123859
v 0.109636 -0.245866 0.124052
v 0.101917 -0.230742 0.123802
v 0.0979853 -0.222344 0.123677
v 0.0949663 -0.21553 0.123582
v 0.126622 -0.274132 0.124616
v 0.141252 -0.294275 0.125116
v 0.158187 -0.31393 0.125709
v 0.159034 -0.314824 0.125739
v 1.06075 -0.311354 0.454694
v 1.05711 -0.310104 0.455353
v 1.06793 -0.313848 0.453335
v 1.07292 -0.315607 0.45234
v 1.076 -0.316704 0.451706
v 1.083 -0.319227 0.450207
v 1.08855 -0.321259 0.44896
v 1.09108 -0.322196 0.448373
v 1.09791 -0.324747 0.446738
v 1.10401 -0.32706 0.445211
v 1.10602 -0.327831 0.444693
v 1.11267 -0.330407 0.442928
v 1.00855 -0.29447 0.46218
v 1.01397 -0.296125 0.461592
v 1.02958 -0.301013 0.459659
v 1.02493 -0.299536 0.460273
v 1.04503 -0.306042 0.457386
v 1.04111 -0.304747 0.457997
v 1.1193 -0.333013 0.441093
v 0.651356 -0.270693 0.485361
v 0.643968 -0.27015 0.485068
v 0.652352 -0.270766 0.485397
v 0.655855 -0.271021 0.485516
v 0.640273 -0.269876 0.484904
v 0.63025 -0.269123 0.484398
v 0.628163 -0.268965 0.484281
v 0.61995 -0.268336 0.483782
v 0.616024 -0.268032 0.483522
v 0.609802 -0.267545 0.483078
v 0.603858 -0.267075 0.482619
v 0.595604 -0.266414 0.481923
v 0.589895 -0.26595 0.4814
v 0.583309 -0.265409 0.480756
v 0.507884 -0.258657 0.469905
v 0.495279 -0.257418 0.467432
v 0.493514 -0.257242 0.46707
v 0.482142 -0.256092 0.464647
v 0.476111 -0.25547 0.463297
v 0.469162 -0.254744 0.461687
v 0.481208 -0.255996 0.46444
v 0.456507 -0.253393 0.458608
v 0.456109 -0.25335 0.458508
v 0.449555 -0.252637 0.456837
v 0.442983 -0.251911 0.455111
v 0.436392 -0.251174 0.453331
v 0.435928 -0.251122 0.453204
v 0.429781 -0.250426 0.451498
v 0.423151 -0.249665 0.449614
v 0.4165 -0.248893 0.447679
v 0.415128 -0.248733 0.447275
v 0.403136 -0.247314 0.443663
v 0.394485 -0.246272 0.440978
v 0.389681 -0.245688 0.43946
v 0.376129 -0.244015 0.435085
v 0.371929 -0.24349 0.433704
v 0.36247 -0.242298 0.430554
v 0.346492 -0.240252 0.425129
v 0.334791 -0.238731 0.421092
v 0.992319 -0.291074 0.463951
v 0.955079 -0.289134 0.468589
v 0.938933 -0.288279 0.470476
v 0.931597 -0.287887 0.471308
v 0.920285 -0.287279 0.472557
v 0.90912 -0.286674 0.473749
v 0.898301 -0.286084 0.474864
v 0.918733 -0.287195 0.472725
v 0.887352 -0.285481 0.475951
v 0.877628 -0.284941 0.47688
v 0.887995 -0.285517 0.475888
v 0.863746 -0.284163 0.478144
v 0.856708 -0.283765 0.478756
v 0.8672 -0.284358 0.477836
v 0.856044 -0.283728 0.478813
v 0.846151 -0.283164 0.479637
v 0.840844 -0.282859 0.480063
v 0.83553 -0.282553 0.480477
v 0.826371 -0.282021 0.481162
v 0.817795 -0.281519 0.48177
v 0.796656 -0.280263 0.483121
v 0.794599 -0.280139 0.48324
v 0.814087 -0.281301 0.482022
v 0.770373 -0.278661 0.484489
v 0.769745 -0.278622 0.484517
v 0.759528 -0.277986 0.484946
v 0.759265 -0.27797 0.484956
v 0.744022 -0.277006 0.485482
v 0.736827 -0.276544 0.485683
v 0.71225 -0.274935 0.486121
v 0.702597 -0.274288 0.486184
v 0.719449 -0.275412 0.486033
v 0.70034 -0.274136 0.486189
v 0.695842 -0.27383 0.486188
v 0.688394 -0.27332 0.486155
v 0.679386 -0.272695 0.486061
v 0.673192 -0.27226 0.48596
v 0.667661 -0.271868 0.485845
v 0.676414 -0.272487 0.486016
v 0.6644 -0.271636 0.485766
v 0.781408 -0.279339 0.483958
v 0.792371 -0.280005 0.483368
v 0.978663 -0.290367 0.465695
v 0.316281 -0.236292 0.414635
v 1.34468 -0.289222 0.459957
v 1.38671 -0.287962 0.459489
v 1.30039 -0.290274 0.460428
v 1.3316 -0.289561 0.460098
v 1.2987 -0.290309 0.460446
v 1.25965 -0.291012 0.460844
v 1.27457 -0.290766 0.460694
v 1.25158 -0.291133 0.460925
v 1.20822 -0.29165 0.461347
v 1.24167 -0.291271 0.461022
v 1.2026 -0.291701 0.4614
v 1.15384 -0.291998 0.461853
v 1.1742 -0.291906 0.461666
v 1.10446 -0.292047 0.462293
v 1.13771 -0.292041 0.461999
v 1.13962 -0.292037 0.461982
v 1.05131 -0.291837 0.462747
v 1.06923 -0.291936 0.462596
v 1.03239 -0.2917 0.462905
v 1.69187 -0.268982 0.455305
v 1.70422 -0.267753 0.455098
v 1.71 -0.267161 0.455
v 1.6735 -0.270732 0.455607
v 1.65489 -0.27241 0.455905
v 1.66717 -0.271314 0.455709
v 1.63602 -0.274017 0.456199
v 1.63968 -0.273713 0.456142
v 1.61691 -0.275553 0.456489
v 1.62567 -0.274861 0.456357
v 1.59755 -0.277019 0.456775
v 1.60896 -0.276166 0.456607
v 1.57793 -0.278415 0.457058
v 1.58225 -0.278115 0.456997
v 1.53791 -0.280997 0.457614
v 1.54904 -0.280313 0.457462
v 1.51752 -0.282184 0.457887
v 1.51979 -0.282056 0.457857
v 1.53678 -0.281065 0.457629
v 1.47593 -0.284351 0.458423
v 1.48914 -0.283698 0.458255
v 1.43327 -0.286245 0.458946
v 1.43917 -0.286002 0.458875
v 1.40706 -0.287254 0.459255
v 1.55805 -0.279741 0.457338
v 2.03204 -0.213442 0.447751
v 2.03924 -0.211616 0.447534
v 2.01044 -0.21871 0.448382
v 2.01971 -0.216488 0.448114
v 2.02595 -0.214959 0.447931
v 1.98834 -0.223784 0.448999
v 1.99968 -0.221218 0.448686
v 1.97239 -0.22726 0.449429
v 1.98133 -0.22533 0.44919
v 1.96573 -0.228666 0.449604
v 1.91897 -0.237857 0.450776
v 1.9254 -0.236662 0.450621
v 1.8948 -0.242169 0.451343
v 1.90718 -0.239997 0.451056
v 1.91451 -0.238676 0.450883
v 1.87132 -0.246094 0.451872
v 1.88379 -0.244042 0.451594
v 1.87009 -0.246293 0.451899
v 1.88915 -0.243137 0.451473
v 1.85179 -0.249172 0.452296
v 1.85368 -0.248882 0.452255
v 1.84483 -0.250231 0.452443
v 1.81845 -0.254061 0.452987
v 1.79263 -0.257551 0.453498
v 1.80186 -0.256332 0.453318
v 1.76818 -0.260632 0.453962
v 1.78369 -0.258702 0.45367
v 1.76567 -0.260935 0.454009
v 1.73813 -0.264139 0.45451
v 1.74742 -0.263086 0.454343
v 2.35311 -0.0796122 0.433352
v 2.35792 -0.0764016 0.433025
v 2.29537 -0.114379 0.436924
v 2.30258 -0.11039 0.436511
v 2.3391 -0.0886744 0.434277
v 2.3435 -0.085872 0.433991
v 2.34615 -0.0841703 0.433817
v 2.34861 -0.0825687 0.433653
v 2.33197 -0.0931246 0.434733
v 2.31745 -0.101864 0.435631
v 2.3279 -0.0956177 0.434989
v 2.31186 -0.105117 0.435966
v 2.27841 -0.123408 0.437864
v 2.28736 -0.118703 0.437374
v 1.94402 -0.23308 0.450161
v 2.05125 -0.208486 0.447165
v 1.11959 -0.333134 0.441006
v 1.11984 -0.333271 0.44091
v 1.12007 -0.333447 0.440787
v 1.11992 -0.333906 0.440516
v 1.11971 -0.333996 0.440473
v 1.12007 -0.3338 0.440571
v 1.11234 -0.336539 0.439229
v 1.1116 -0.336789 0.43911
v 1.10227 -0.339819 0.437686
v 1.09673 -0.341546 0.436881
v 1.07913 -0.346743 0.434432
v 1.07649 -0.347491 0.434072
v 1.04594 -0.35562 0.42996
v 1.03789 -0.357625 0.428873
v 1.02789 -0.360043 0.427517
v 1.01496 -0.36306 0.425746
v 1.00827 -0.364574 0.424821
v 1.00684 -0.364894 0.424622
v 0.990796 -0.368391 0.422372
v 0.985478 -0.369514 0.421617
v 0.965556 -0.37357 0.418743
v 0.962559 -0.37416 0.418305
v 0.939352 -0.378563 0.414852
v 0.925274 -0.381094 0.412707
v 0.912277 -0.383341 0.410692
v 0.912076 -0.383375 0.410661
v 0.898495 -0.385633 0.408519
v 0.886944 -0.387484 0.406669
v 0.884531 -0.387862 0.406279
v 0.884403 -0.387883 0.406258
v 0.870187 -0.390059 0.403937
v 0.84311 -0.393954 0.399404
v 0.840359 -0.394332 0.398936
v 0.812009 -0.39804 0.394018
v 0.809022 -0.398411 0.393491
v 0.826506 -0.396186 0.396553
v 0.855791 -0.39217 0.401545
v 1.05938 -0.352153 0.431765
v 1.09059 -0.343407 0.436011
v 0.825612 -0.325 0.149636
v 0.82176 -0.325 0.140057
v 0.817391 -0.325 0.130315
v 0.812467 -0.325 0.120406
v 0.807135 -0.325 0.110673
v 0.80143 -0.325 0.101184
v 0.795387 -0.325 0.0919949
v 0.789038 -0.325 0.0831519
v 0.782414 -0.325 0.0746898
v 0.775542 -0.325 0.0666348
v 0.768448 -0.325 0.0590059
v 0.761154 -0.325 0.0518157
v 0.753679 -0.325 0.0450719
v 0.398791 -0.325 0.0522051
v 0.391213 -0.325 0.059742
v 0.383951 -0.325 0.0675763
v 0.377019 -0.325 0.0756944
v 0.370427 -0.325 0.0840824
v 0.364185 -0.325 0.0927261
v 0.358304 -0.325 0.101609
v 0.352794 -0.325 0.110714
v 0.347662 -0.325 0.120026
v 0.342916 -0.325 0.129528
v 0.341421 -0.325 0.132736
v 0.337176 -0.325 0.142525
v 0.333281 -0.325 0.152622
v 0.329808 -0.325 0.162864
v 0.326762 -0.325 0.173232
v 0.324147 -0.325 0.183709
v 0.321967 -0.325 0.194276
v 0.320224 -0.325 0.204917
v 0.318921 -0.325 0.215612
v 0.318058 -0.325 0.226344
v 0.317637 -0.325 0.237095
v 0.317656 -0.325 0.247847
v 0.318115 -0.325 0.258582
v 0.319013 -0.325 0.269281
v 0.320346 -0.325 0.279928
v 0.322113 -0.325 0.290505
v 0.324308 -0.325 0.300994
v 0.326928 -0.325 0.311378
v 0.329968 -0.325 0.32164
v 0.333421 -0.325 0.331763
v 0.337281 -0.325 0.34173
v 0.341541 -0.325 0.351526
v 0.346193 -0.325 0.361135
v 0.351229 -0.325 0.370541
v 0.356393 -0.325 0.379326
v 0.362152 -0.325 0.38829
v 0.368264 -0.325 0.397005
v 0.374718 -0.325 0.405456
v 0.381501 -0.325 0.41363
v 0.388602 -0.325 0.421515
v 0.396009 -0.325 0.429099
v 0.403707 -0.325 0.43637
v 0.411685 -0.325 0.443317
v 0.419927 -0.325 0.449931
v 0.42842 -0.325 0.456201
v 0.437149 -0.325 0.462119
v 0.446099 -0.325 0.467675
v 0.455255 -0.325 0.472862
v 0.464602 -0.325 0.477673
v 0.474123 -0.325 0.482102
v 0.483804 -0.325 0.486141
v 0.493627 -0.325 0.489787
v 0.503577 -0.325 0.493034
v 0.513638 -0.325 0.495879
v 0.523792 -0.325 0.498319
v 0.534023 -0.325 0.50035
v 0.544315 -0.325 0.501972
v 0.554304 -0.325 0.503148
v 0.564938 -0.325 0.503977
v 0.575674 -0.325 0.504374
v 0.58641 -0.325 0.504331
v 0.597128 -0.325 0.50385
v 0.60781 -0.325 0.502932
v 0.618439 -0.325 0.501579
v 0.628998 -0.325 0.499794
v 0.639468 -0.325 0.497582
v 0.649832 -0.325 0.494947
v 0.660075 -0.325 0.491893
v 0.670178 -0.325 0.488428
v 0.680125 -0.325 0.484556
v 0.689901 -0.325 0.480286
v 0.691746 -0.325 0.479427
v 0.701296 -0.325 0.474693
v 0.710639 -0.325 0.469579
v 0.719757 -0.325 0.464096
v 0.728636 -0.325 0.458255
v 0.737262 -0.325 0.452065
v 0.745623 -0.325 0.445538
v 0.753705 -0.325 0.438686
v 0.761496 -0.325 0.43152
v 0.768984 -0.325 0.424054
v 0.776158 -0.325 0.416301
v 0.783007 -0.325 0.408274
v 0.789521 -0.325 0.399987
v 0.795898 -0.325 0.391153
v 0.801781 -0.325 0.382257
v 0.807332 -0.325 0.373069
v 0.812499 -0.325 0.363668
v 0.817274 -0.325 0.35407
v 0.821651 -0.325 0.344292
v 0.825622 -0.325 0.334349
v 0.829183 -0.325 0.324259
v 0.832327 -0.325 0.314039
v 0.835051 -0.325 0.303706
v 0.837351 -0.325 0.293277
v 0.839223 -0.325 0.282769
v 0.840666 -0.325 0.272201
v 0.841677 -0.325 0.26159
v 0.842257 -0.325 0.250955
v 0.842404 -0.325 0.240317
v 0.842121 -0.325 0.229693
v 0.841408 -0.325 0.2191
v 0.840269 -0.325 0.208555
v 0.838707 -0.325 0.198075
v 0.836725 -0.325 0.187678
v 0.834328 -0.325 0.177379
v 0.831522 -0.325 0.167196
v 0.828311 -0.325 0.157145
# </points>

# <edges count="2362">
l 32 33
l 34 35
l 36 1
l 33 37
l 38 39
l 40 2
l 41 34
l 1 42
l 37 43
l 44 45
l 46 47
l 3 48
l 49 50
l 51 38
l 43 36
l 52 53
l 54 44
l 48 46
l 55 49
l 56 51
l 57 40
l 58 59
l 60 61
l 62 63
l 42 52
l 64 65
l 66 67
l 47 54
l 45 55
l 68 69
l 70 71
l 2 56
l 72 58
l 73 74
l 75 60
l 76 77
l 78 62
l 79 80
l 53 81
l 81 82
l 83 84
l 67 64
l 85 86
l 50 68
l 87 88
l 89 70
l 39 90
l 90 72
l 91 73
l 92 93
l 94 76
l 63 95
l 82 96
l 97 98
l 99 100
l 84 101
l 86 66
l 102 103
l 103 87
l 88 89
l 59 104
l 104 91
l 105 106
l 107 108
l 109 110
l 111 112
l 113 114
l 77 78
l 95 115
l 35 32
l 96 116
l 100 83
l 65 4
l 117 118
l 69 102
l 74 119
l 120 107
l 121 109
l 122 92
l 123 111
l 124 125
l 126 127
l 128 129
l 115 79
l 116 97
l 101 85
l 4 130
l 131 132
l 133 117
l 71 57
l 119 134
l 135 105
l 110 136
l 137 138
l 93 139
l 140 141
l 142 143
l 144 124
l 145 146
l 147 113
l 148 149
l 150 126
l 14 151
l 80 41
l 106 120
l 136 15
l 152 153
l 138 154
l 141 122
l 112 142
l 146 144
l 155 156
l 157 158
l 114 159
l 160 161
l 149 162
l 163 14
l 164 128
l 98 99
l 130 131
l 118 3
l 108 121
l 15 165
l 154 152
l 139 166
l 125 167
l 158 155
l 159 168
l 169 170
l 161 171
l 172 148
l 173 174
l 175 176
l 177 150
l 178 163
l 179 180
l 61 94
l 132 133
l 134 135
l 153 140
l 143 145
l 181 157
l 182 183
l 184 182
l 185 186
l 187 185
l 188 147
l 171 169
l 174 172
l 127 175
l 180 164
l 166 123
l 167 181
l 189 190
l 191 192
l 193 194
l 195 196
l 170 173
l 176 178
l 129 75
l 165 137
l 183 197
l 197 189
l 190 191
l 194 198
l 196 187
l 162 177
l 156 184
l 192 193
l 186 188
l 151 179
l 168 160
l 198 195
l 199 200
l 201 202
l 203 204
l 205 206
l 207 208
l 209 210
l 211 209
l 212 213
l 214 215
l 216 217
l 218 219
l 219 220
l 221 222
l 223 216
l 224 225
l 225 226
l 227 228
l 229 230
l 231 229
l 232 233
l 234 232
l 235 236
l 237 238
l 239 237
l 228 239
l 240 241
l 242 243
l 244 245
l 246 247
l 3 248
l 249 250
l 250 251
l 248 246
l 252 240
l 247 252
l 245 242
l 243 227
l 241 244
l 238 231
l 236 199
l 233 235
l 230 234
l 226 218
l 222 223
l 220 221
l 217 253
l 253 214
l 213 254
l 254 211
l 215 212
l 210 205
l 208 201
l 206 207
l 204 255
l 255 249
l 202 203
l 200 224
l 256 257
l 257 258
l 259 256
l 260 261
l 262 260
l 263 264
l 265 266
l 267 268
l 269 270
l 271 272
l 273 274
l 275 276
l 277 265
l 278 279
l 251 280
l 281 282
l 283 284
l 285 283
l 258 285
l 286 287
l 287 288
l 289 290
l 288 291
l 291 289
l 292 293
l 290 294
l 294 292
l 295 296
l 293 297
l 297 295
l 298 299
l 300 298
l 296 300
l 299 301
l 301 302
l 303 304
l 305 306
l 307 305
l 306 308
l 308 309
l 310 311
l 312 313
l 314 312
l 313 315
l 16 316
l 315 317
l 317 16
l 311 314
l 309 310
l 304 307
l 302 303
l 5 286
l 284 5
l 282 278
l 280 281
l 279 273
l 274 275
l 276 277
l 266 271
l 272 267
l 268 318
l 318 269
l 319 263
l 264 262
l 261 259
l 270 319
l 320 321
l 322 320
l 323 324
l 325 323
l 326 327
l 328 326
l 327 329
l 330 331
l 332 330
l 333 332
l 324 333
l 334 335
l 336 337
l 337 334
l 331 336
l 338 339
l 335 338
l 340 341
l 342 343
l 344 345
l 346 344
l 347 348
l 348 349
l 350 347
l 351 350
l 345 322
l 352 353
l 354 355
l 356 354
l 357 356
l 358 357
l 359 358
l 360 359
l 361 360
l 321 361
l 362 363
l 364 365
l 365 362
l 366 367
l 368 366
l 369 370
l 353 369
l 370 371
l 372 373
l 367 372
l 374 328
l 375 374
l 376 375
l 377 4
l 373 377
l 371 368
l 363 378
l 355 364
l 378 352
l 349 346
l 341 342
l 379 380
l 380 340
l 343 351
l 329 325
l 339 379
l 381 382
l 383 384
l 385 386
l 387 388
l 389 390
l 390 381
l 391 392
l 393 391
l 394 395
l 396 397
l 398 399
l 400 401
l 402 400
l 403 404
l 405 403
l 406 407
l 404 406
l 408 409
l 410 411
l 411 412
l 413 414
l 415 416
l 417 418
l 419 417
l 420 421
l 422 423
l 424 425
l 425 426
l 427 428
l 429 427
l 430 431
l 432 433
l 434 435
l 435 436
l 437 6
l 6 438
l 439 440
l 441 442
l 440 385
l 442 437
l 443 376
l 444 443
l 438 439
l 436 441
l 433 434
l 431 432
l 445 430
l 428 445
l 426 429
l 423 424
l 421 422
l 446 420
l 418 446
l 416 419
l 414 415
l 447 413
l 412 447
l 448 408
l 409 444
l 407 402
l 449 405
l 401 448
l 399 393
l 397 398
l 395 450
l 451 394
l 450 396
l 392 449
l 388 389
l 452 387
l 384 453
l 386 383
l 453 452
l 382 451
l 454 455
l 5 454
l 455 456
l 457 458
l 459 460
l 461 459
l 460 457
l 462 461
l 463 464
l 465 462
l 464 466
l 467 468
l 468 469
l 470 471
l 471 472
l 473 474
l 474 475
l 476 477
l 477 478
l 479 480
l 480 481
l 482 483
l 483 484
l 485 486
l 486 487
l 488 489
l 489 490
l 491 492
l 492 493
l 494 491
l 493 488
l 495 496
l 497 495
l 496 494
l 490 485
l 498 499
l 500 498
l 499 497
l 487 482
l 501 502
l 503 501
l 502 500
l 504 505
l 506 504
l 505 503
l 484 479
l 507 508
l 509 507
l 508 506
l 481 476
l 478 473
l 510 511
l 512 510
l 511 509
l 475 470
l 513 514
l 515 513
l 514 512
l 472 467
l 16 17
l 17 516
l 516 517
l 517 515
l 469 465
l 466 518
l 518 519
l 519 520
l 520 521
l 522 523
l 524 525
l 526 527
l 528 526
l 529 528
l 527 530
l 531 532
l 530 531
l 533 534
l 534 535
l 536 537
l 538 536
l 535 538
l 539 540
l 541 539
l 537 541
l 542 543
l 544 545
l 546 544
l 547 548
l 545 547
l 548 549
l 550 551
l 552 550
l 553 554
l 551 553
l 555 556
l 554 555
l 557 558
l 556 557
l 559 560
l 558 559
l 561 562
l 560 561
l 563 564
l 562 563
l 564 565
l 566 567
l 568 566
l 569 570
l 567 569
l 570 571
l 571 572
l 572 573
l 574 2
l 575 576
l 577 575
l 578 579
l 579 580
l 581 582
l 583 581
l 584 585
l 586 587
l 588 586
l 589 590
l 591 589
l 592 593
l 593 594
l 595 596
l 596 597
l 598 599
l 599 600
l 601 602
l 603 604
l 605 606
l 607 608
l 608 605
l 609 610
l 610 611
l 612 613
l 614 612
l 613 615
l 616 617
l 617 618
l 619 620
l 621 622
l 622 619
l 623 621
l 624 625
l 625 623
l 626 627
l 628 629
l 630 631
l 632 630
l 633 632
l 634 635
l 636 634
l 637 638
l 639 637
l 640 641
l 642 643
l 644 645
l 573 644
l 645 642
l 643 640
l 641 639
l 638 636
l 635 633
l 631 628
l 629 626
l 627 624
l 620 616
l 618 614
l 615 609
l 611 607
l 606 603
l 604 601
l 602 598
l 600 595
l 597 592
l 594 591
l 590 588
l 587 584
l 585 583
l 582 578
l 580 577
l 576 574
l 565 568
l 549 552
l 543 546
l 540 542
l 532 533
l 525 529
l 523 524
l 521 522
l 18 463
l 458 18
l 646 15
l 647 648
l 647 15
l 646 19
l 649 19
l 650 651
l 652 653
l 653 654
l 655 656
l 657 658
l 659 660
l 661 659
l 654 661
l 662 663
l 664 665
l 666 664
l 651 667
l 668 669
l 667 666
l 665 662
l 663 670
l 660 650
l 658 652
l 671 655
l 656 657
l 672 673
l 674 675
l 676 674
l 20 677
l 14 21
l 678 14
l 14 679
l 679 21
l 680 678
l 681 682
l 683 681
l 684 685
l 685 686
l 687 688
l 688 689
l 690 691
l 692 690
l 693 694
l 695 696
l 696 697
l 698 699
l 700 701
l 701 702
l 703 704
l 705 703
l 706 707
l 708 709
l 709 710
l 711 712
l 713 714
l 712 713
l 715 716
l 18 717
l 717 718
l 719 720
l 721 719
l 722 723
l 724 725
l 726 727
l 728 729
l 729 730
l 731 732
l 733 731
l 734 735
l 736 737
l 738 739
l 740 741
l 742 743
l 744 745
l 746 744
l 747 684
l 745 747
l 743 746
l 741 742
l 739 740
l 737 738
l 735 736
l 732 734
l 730 733
l 748 728
l 727 748
l 725 726
l 723 724
l 720 722
l 718 721
l 749 750
l 716 749
l 714 715
l 751 711
l 710 751
l 707 708
l 752 706
l 704 752
l 702 705
l 699 700
l 697 698
l 694 695
l 753 693
l 691 753
l 689 692
l 686 687
l 17 754
l 456 755
l 755 22
l 756 757
l 758 756
l 759 760
l 761 759
l 762 763
l 763 764
l 764 765
l 765 766
l 767 768
l 766 767
l 769 770
l 770 771
l 771 772
l 772 773
l 773 774
l 775 776
l 777 775
l 778 779
l 779 780
l 780 781
l 782 783
l 784 782
l 785 784
l 786 787
l 788 789
l 787 788
l 789 790
l 790 791
l 792 793
l 794 792
l 795 794
l 796 797
l 798 799
l 797 798
l 800 801
l 802 800
l 803 804
l 804 805
l 805 806
l 806 807
l 807 808
l 809 810
l 810 811
l 812 809
l 811 813
l 813 814
l 815 816
l 817 815
l 818 819
l 819 820
l 820 821
l 821 822
l 823 824
l 822 823
l 825 826
l 827 828
l 826 829
l 829 830
l 831 832
l 833 831
l 834 835
l 835 836
l 836 837
l 838 839
l 840 838
l 837 840
l 841 842
l 842 843
l 839 841
l 843 844
l 844 845
l 846 847
l 847 848
l 849 850
l 850 846
l 848 851
l 851 852
l 852 853
l 854 855
l 856 854
l 853 856
l 857 858
l 858 859
l 859 860
l 861 862
l 860 861
l 863 864
l 865 863
l 866 867
l 867 868
l 868 869
l 870 871
l 869 870
l 872 873
l 874 875
l 873 874
l 876 877
l 875 876
l 878 879
l 879 880
l 881 878
l 882 758
l 880 750
l 877 881
l 871 872
l 864 866
l 862 865
l 855 857
l 845 849
l 832 834
l 830 833
l 828 825
l 824 827
l 816 818
l 814 817
l 808 812
l 801 803
l 799 802
l 793 796
l 791 795
l 783 786
l 781 785
l 776 778
l 774 777
l 768 769
l 760 762
l 757 761
l 23 883
l 883 884
l 25 23
l 885 24
l 886 885
l 887 886
l 888 887
l 889 888
l 22 890
l 890 889
l 891 7
l 892 891
l 893 892
l 894 893
l 24 894
l 8 895
l 7 8
l 9 896
l 884 9
l 897 898
l 899 900
l 901 902
l 902 903
l 903 904
l 904 905
l 906 907
l 907 908
l 905 906
l 908 909
l 910 911
l 909 910
l 912 913
l 911 912
l 914 882
l 913 914
l 900 901
l 898 899
l 896 897
l 915 916
l 915 917
l 918 919
l 918 920
l 921 922
l 923 921
l 924 923
l 922 925
l 926 927
l 928 929
l 930 931
l 929 930
l 932 933
l 934 932
l 935 936
l 936 937
l 938 939
l 939 940
l 941 942
l 943 941
l 944 945
l 946 947
l 948 946
l 949 948
l 950 951
l 952 950
l 951 953
l 954 955
l 956 957
l 955 956
l 957 958
l 959 960
l 961 962
l 960 961
l 962 963
l 964 965
l 966 967
l 968 966
l 967 969
l 970 971
l 972 973
l 974 975
l 976 974
l 975 977
l 978 979
l 980 981
l 982 980
l 983 984
l 985 982
l 986 985
l 987 988
l 989 987
l 981 989
l 988 990
l 9 949
l 991 992
l 984 993
l 993 994
l 994 986
l 979 983
l 977 978
l 973 976
l 971 972
l 969 970
l 995 968
l 965 995
l 963 964
l 958 996
l 996 959
l 953 997
l 997 954
l 947 952
l 998 991
l 999 944
l 945 998
l 942 999
l 937 938
l 940 943
l 933 1000
l 1000 935
l 1001 1002
l 1002 934
l 927 928
l 925 926
l 990 924
l 931 1001
l 1003 1004
l 1004 1005
l 1006 1007
l 1008 1009
l 1010 1011
l 1011 1008
l 1012 1013
l 1014 1015
l 1015 1016
l 1017 1018
l 1019 1020
l 1013 1019
l 1021 1022
l 1023 1021
l 1024 1025
l 1026 1027
l 1028 1029
l 1030 1026
l 1031 1030
l 1032 1031
l 1033 1032
l 1034 1033
l 1035 1036
l 1037 1006
l 1038 1037
l 1039 1040
l 1036 1039
l 1041 1035
l 1042 1041
l 1043 1044
l 1045 1043
l 1046 1047
l 1048 1049
l 1050 1046
l 1051 1052
l 1053 1054
l 1055 1051
l 1056 1055
l 1057 1058
l 1059 1060
l 1061 1062
l 1063 1061
l 1064 1063
l 1065 1066
l 1067 1068
l 1069 1070
l 1071 1072
l 1073 1071
l 1074 1075
l 1076 1077
l 1078 1079
l 1079 1080
l 1080 1081
l 1075 1082
l 1083 1084
l 1085 1086
l 1087 1088
l 1089 1087
l 1090 1091
l 1092 1090
l 1088 1092
l 1093 1094
l 1095 1093
l 1094 1089
l 1007 1096
l 992 1034
l 10 1097
l 1098 10
l 1097 1042
l 1096 1095
l 1091 1010
l 1086 1083
l 1099 1074
l 1084 1099
l 1082 1076
l 1081 1100
l 1077 1078
l 1100 1073
l 1072 1069
l 1070 1067
l 1068 1065
l 1066 1064
l 1062 1059
l 1060 1057
l 1058 1056
l 1054 1101
l 1052 1053
l 1101 1050
l 1049 1102
l 1047 1048
l 1102 1045
l 1103 1098
l 1044 1103
l 1040 1038
l 1027 1104
l 1104 1028
l 1029 1105
l 1105 1024
l 1025 1106
l 1022 1012
l 1106 1023
l 1020 1017
l 1018 1107
l 1107 1014
l 1016 1085
l 1108 1109
l 1110 1111
l 1112 1113
l 1114 1115
l 1116 1117
l 1118 1116
l 1119 1120
l 1121 1119
l 26 1122
l 1123 1124
l 1125 1108
l 1120 1125
l 1124 1121
l 1126 1127
l 1117 1126
l 1128 1112
l 1113 1114
l 1127 1128
l 1109 1118
l 1129 1130
l 1131 1
l 1132 1133
l 1134 1135
l 1136 1137
l 1138 1139
l 1140 1134
l 1141 1142
l 1143 1144
l 1145 1146
l 1147 1148
l 1149 1150
l 1151 1152
l 1153 1154
l 1155 1156
l 1157 1158
l 1159 1160
l 1161 1162
l 1163 1164
l 1165 1166
l 1167 1168
l 1168 1169
l 1170 1171
l 1172 1173
l 1174 1175
l 1176 1177
l 1178 1179
l 1180 1178
l 1181 1182
l 1182 1183
l 1183 1172
l 1184 1185
l 1185 1186
l 1186 1181
l 1187 1188
l 1189 1190
l 1191 1170
l 1192 1193
l 1193 1194
l 1195 1196
l 1197 1187
l 1169 1198
l 1199 1200
l 1201 1202
l 1203 1204
l 1204 1205
l 1206 1207
l 1208 1209
l 1210 1211
l 1212 1213
l 1213 1214
l 1215 1216
l 1217 1218
l 1218 1219
l 1220 1221
l 1222 1223
l 1224 1225
l 1226 1227
l 1227 1228
l 1130 1229
l 1229 1226
l 1228 1217
l 1225 1220
l 1223 1199
l 1221 1222
l 1219 1224
l 1216 1210
l 1214 1201
l 1211 1212
l 1209 1203
l 1207 1167
l 1205 1206
l 1202 1208
l 1200 1215
l 1198 1195
l 1196 1197
l 1194 1189
l 1190 1191
l 1188 1192
l 1179 1174
l 1177 1230
l 1175 1176
l 1173 1180
l 1171 1184
l 1164 1161
l 1166 1163
l 1162 1159
l 1160 1157
l 1158 1155
l 1156 1151
l 1152 1153
l 1154 1132
l 1133 1149
l 1150 1143
l 1148 1145
l 1144 1147
l 1142 1140
l 1139 1136
l 1137 1129
l 1135 1138
l 1146 1141
l 1230 1131
l 1231 1232
l 1232 1233
l 1234 1235
l 1236 1237
l 1237 1234
l 1238 1239
l 1240 1241
l 1242 1240
l 1241 1243
l 1244 1245
l 1243 1246
l 1246 1244
l 1247 1248
l 1248 1249
l 1250 1251
l 1249 1250
l 1252 1253
l 1251 1252
l 1254 1255
l 1253 1254
l 1255 1256
l 1257 1258
l 1259 1260
l 1261 1259
l 1260 1257
l 1262 1261
l 1263 1262
l 1264 1265
l 1265 1266
l 1267 1268
l 1268 1269
l 1270 1271
l 1271 1272
l 1273 1274
l 1274 1275
l 1276 1277
l 1277 1278
l 1279 1280
l 1280 1281
l 1282 1283
l 1283 1284
l 1285 1286
l 1286 1287
l 1288 1289
l 1289 1290
l 1291 1288
l 1290 1285
l 1292 1293
l 1294 1292
l 1293 1291
l 1287 1282
l 1295 1296
l 1297 1295
l 1296 1294
l 1284 1279
l 1298 1299
l 1300 1298
l 1299 1297
l 1281 1276
l 1301 1302
l 1303 1301
l 1302 1300
l 1304 1305
l 1306 1304
l 1305 1303
l 1278 1273
l 1275 1270
l 1307 1308
l 1309 1307
l 1308 1306
l 1272 1267
l 1256 1310
l 1311 1312
l 1310 1313
l 1314 1311
l 1312 1309
l 1269 1264
l 1315 1316
l 1317 1315
l 1316 1314
l 1313 27
l 27 1317
l 1266 1263
l 1258 410
l 1245 1247
l 1239 1242
l 1235 1238
l 1233 1236
l 1165 1231
l 1009 1318
l 1319 1320
l 1321 1322
l 1323 1324
l 1325 1326
l 1327 1328
l 1329 1330
l 1331 1332
l 1332 1333
l 1333 1334
l 1335 1336
l 1337 1335
l 1338 1339
l 1336 1338
l 1340 1341
l 1341 1342
l 1343 1344
l 1344 1345
l 1346 1347
l 1348 1349
l 1350 1351
l 1351 1352
l 1352 1353
l 1354 1355
l 1355 1356
l 1357 1358
l 1358 1359
l 1360 1361
l 1362 1363
l 1363 1360
l 1361 1364
l 1365 1366
l 1367 1365
l 1368 1369
l 1369 1370
l 1371 1372
l 1373 1374
l 1374 1371
l 1372 1375
l 1376 1377
l 1378 1379
l 1377 1380
l 1380 1378
l 1379 1381
l 1382 1383
l 1384 1385
l 1386 1387
l 1388 1389
l 1390 1388
l 1391 1392
l 1393 1394
l 1394 1395
l 1396 1397
l 1398 1399
l 1399 1396
l 1397 1400
l 1401 1402
l 1403 1404
l 1402 1403
l 1405 1406
l 1407 1408
l 1408 1409
l 1410 1411
l 1412 1413
l 1411 1412
l 1414 1415
l 1416 1417
l 1418 1419
l 1420 1421
l 1422 1420
l 1423 1422
l 1419 1423
l 1424 1418
l 1417 1424
l 1425 1416
l 1415 1425
l 1413 1414
l 1409 1410
l 1406 1407
l 1404 1405
l 1400 1401
l 1426 1398
l 1395 1426
l 1392 1393
l 1427 1391
l 1389 1427
l 1387 1390
l 1428 1386
l 1385 1428
l 1429 1384
l 1383 1429
l 1430 1382
l 1381 1430
l 1375 1376
l 1431 1373
l 1370 1431
l 1366 1368
l 1364 1367
l 1359 1362
l 1356 1357
l 1353 1354
l 1349 1350
l 1347 1348
l 1345 1346
l 1342 1343
l 1339 1340
l 1334 1337
l 1432 1331
l 1330 1432
l 1433 1329
l 1328 1433
l 1434 1327
l 1326 1434
l 1435 1325
l 1324 1435
l 1436 1323
l 1322 1436
l 1437 1321
l 1320 1437
l 1438 1319
l 1318 1438
l 10 1439
l 1440 6
l 1421 1441
l 1441 1442
l 1442 1443
l 1444 1445
l 1445 1446
l 1447 1448
l 1449 1447
l 1450 1451
l 1448 1450
l 1451 1452
l 1453 1454
l 1455 1456
l 1454 1457
l 1457 1455
l 1458 1459
l 1456 1458
l 1460 1461
l 1462 1463
l 1461 1462
l 1463 1464
l 1465 1466
l 1467 1468
l 1466 1469
l 1469 1467
l 1470 1471
l 1472 1470
l 1468 1472
l 1471 1473
l 1474 1475
l 1473 1476
l 1476 1474
l 1477 1478
l 1479 1477
l 1475 1479
l 1478 1480
l 1480 1481
l 1482 1483
l 1484 1482
l 1485 1486
l 1483 1485
l 1487 1488
l 1486 1487
l 1489 1490
l 1491 1489
l 1488 1491
l 1492 1493
l 1490 1492
l 1494 1495
l 1496 1494
l 1497 1498
l 1499 1497
l 1495 1499
l 1500 1501
l 1498 1500
l 1502 1503
l 1501 1502
l 1504 1505
l 1503 1504
l 1505 27
l 1493 1496
l 1481 1484
l 1464 1465
l 1459 1460
l 1452 1453
l 1446 1449
l 1443 1444
l 28 1440
l 1439 1506
l 1506 29
l 1507 1508
l 1509 30
l 11 1510
l 31 29
l 1511 1512
l 1510 1511
l 30 11
l 1508 1509
l 1513 1507
l 1514 1513
l 1515 1514
l 28 1515
l 1512 12
l 12 31
l 754 16
l 17 316
l 1516 1517
l 1517 1518
l 1518 1519
l 1520 1516
l 1521 1522
l 1522 1520
l 1523 1521
l 1524 1523
l 1525 1524
l 1526 1525
l 1527 1528
l 1529 1527
l 1530 1529
l 1531 1530
l 1532 1533
l 1534 1532
l 1535 1534
l 1536 1535
l 1537 1536
l 1538 1537
l 1539 1538
l 1540 1539
l 1541 1542
l 1542 1543
l 1544 1545
l 1546 1547
l 1548 1549
l 1550 1548
l 1551 1552
l 1549 1551
l 1553 1550
l 1554 1553
l 1555 1546
l 1556 1557
l 1558 1556
l 1559 1558
l 1560 1559
l 1561 1562
l 1563 1561
l 1564 1565
l 1566 1564
l 1567 1560
l 1568 1567
l 1569 1568
l 1570 1571
l 1571 1569
l 1572 1570
l 1573 1572
l 1565 1573
l 1574 1575
l 1576 1574
l 1577 1576
l 1578 1566
l 1575 1578
l 1579 1577
l 1562 1579
l 1580 1581
l 1582 1580
l 1583 1582
l 1584 1583
l 1585 1584
l 1586 1585
l 1587 1586
l 1588 1587
l 1589 1588
l 1590 1589
l 1581 1563
l 1591 1555
l 1552 1544
l 1547 1554
l 1592 1541
l 1543 1593
l 1593 1540
l 1533 1531
l 1528 1526
l 1519 1594
l 1594 1590
l 15 648
l 19 15
l 1592 1595
l 1596 1597
l 1597 1598
l 1599 1600
l 1601 1602
l 1602 1603
l 1604 1601
l 1605 1606
l 1607 1608
l 1608 20
l 1606 1607
l 1603 1605
l 1600 1604
l 1598 1599
l 1595 1596
l 1609 1610
l 1611 1609
l 1612 1611
l 1613 1614
l 1615 1616
l 1617 1618
l 1619 1620
l 1621 1622
l 1623 1624
l 1624 1625
l 1626 1623
l 1627 1628
l 1629 1627
l 1630 1631
l 1632 1633
l 1634 1635
l 1636 1637
l 1638 1636
l 1639 1640
l 1640 1641
l 1642 1643
l 20 1642
l 1644 1645
l 1646 1647
l 1648 1649
l 1650 1651
l 1652 1653
l 1654 1652
l 1655 1656
l 1656 1657
l 1657 1658
l 1659 1660
l 1661 1659
l 1662 1661
l 1663 1664
l 1665 1666
l 1667 1665
l 1668 1669
l 1669 1670
l 1671 1672
l 1673 1674
l 1675 1676
l 1677 1675
l 1678 1679
l 1680 1678
l 1681 1677
l 1682 1683
l 1684 1682
l 1685 1684
l 1686 1687
l 1687 1613
l 1683 1686
l 1679 1681
l 1676 1685
l 1688 1680
l 1674 1688
l 1672 1673
l 1670 1671
l 1666 1668
l 1664 1667
l 1660 1663
l 1658 1662
l 1653 1655
l 1651 1654
l 1649 1650
l 1647 1648
l 1645 1646
l 1643 1644
l 1641 1630
l 1637 1632
l 1635 1638
l 1633 1639
l 1628 1612
l 1625 1629
l 1689 1621
l 1622 1626
l 1614 1615
l 1610 1634
l 1690 1691
l 1692 1690
l 1693 1692
l 1694 1693
l 1695 1696
l 1696 1697
l 1698 1699
l 1699 1700
l 1701 1702
l 1702 1703
l 1704 1705
l 1705 1706
l 1707 1708
l 1709 1710
l 1710 1711
l 1712 1713
l 1713 1714
l 1714 20
l 1711 1712
l 1708 1709
l 1706 1707
l 1703 1704
l 1700 1701
l 1697 1698
l 1691 1695
l 18 1715
l 1715 1716
l 1717 1718
l 1719 1720
l 1718 1719
l 1720 1721
l 1722 1723
l 1721 1722
l 1724 1725
l 1723 1724
l 1726 1727
l 1728 1726
l 1725 1729
l 1729 1728
l 1730 1731
l 1727 1730
l 1732 1733
l 1734 1732
l 1735 1736
l 1733 1735
l 1736 1737
l 1738 1739
l 1737 1738
l 1739 1740
l 1741 1742
l 1740 1741
l 1742 1743
l 1743 1744
l 1744 1745
l 1745 1746
l 1731 1734
l 1716 1717
l 1747 14
l 21 680
l 916 917
l 1748 683
l 919 920
l 1749 1750
l 1750 1751
l 1751 1752
l 1752 1753
l 1753 1754
l 1754 1755
l 1755 1756
l 1756 1757
l 1757 1758
l 1758 1759
l 1759 1760
l 1760 1761
l 22 1749
l 1761 1762
l 1762 1763
l 1763 1764
l 1764 1765
l 1765 1766
l 1766 1767
l 1767 1768
l 1768 1769
l 1769 1770
l 1770 1771
l 1771 1772
l 1772 1773
l 1773 1774
l 1774 1775
l 1775 1776
l 1776 1777
l 1777 1778
l 1778 1779
l 1779 1780
l 1780 1781
l 1781 1782
l 1782 1783
l 1783 1784
l 1784 1785
l 1785 1786
l 1786 1787
l 1787 1788
l 1788 1789
l 1789 1790
l 1790 1791
l 1791 1792
l 1792 1793
l 1793 1794
l 1794 1795
l 1795 1796
l 1796 1797
l 1797 1798
l 1798 1799
l 1799 1800
l 1800 1801
l 1801 1802
l 1802 1803
l 1803 1804
l 1804 1805
l 1805 1806
l 1806 1807
l 1807 1808
l 1808 1809
l 1809 1810
l 1810 1811
l 1811 1812
l 1812 1813
l 1813 1814
l 1814 1815
l 1815 1816
l 1816 1817
l 1817 1818
l 1818 1819
l 1819 1820
l 1820 1821
l 1821 1822
l 1822 1823
l 1823 1824
l 1824 1825
l 1825 1826
l 1826 1827
l 1827 1828
l 1828 1829
l 1829 1830
l 1830 1831
l 1831 1832
l 1832 1833
l 1833 1834
l 1834 1835
l 1835 1836
l 1836 1837
l 1837 1838
l 1838 1839
l 1839 1840
l 1840 1841
l 1841 1842
l 1842 1843
l 1843 1844
l 1844 1845
l 1845 1846
l 1846 1847
l 1847 1848
l 1848 1849
l 1849 1850
l 1850 1851
l 1851 1852
l 1852 1853
l 1853 1854
l 1854 1855
l 1855 1856
l 1856 1857
l 1857 1858
l 1858 1859
l 1859 1860
l 1860 1861
l 1861 1862
l 1862 1863
l 1863 1864
l 1864 1865
l 1865 1866
l 1866 1867
l 1867 1868
l 1868 1869
l 1869 23
l 24 25
l 895 13
l 13 25
l 1870 1871
l 1872 1873
l 1874 1872
l 1875 1876
l 1873 1875
l 1877 1878
l 1879 1880
l 1878 1879
l 1880 1881
l 1882 1883
l 1884 1885
l 1886 1884
l 1885 1887
l 1887 1888
l 1889 1890
l 1891 1892
l 1892 1893
l 1890 1891
l 1888 1889
l 1883 1886
l 1881 1882
l 1876 1877
l 1894 1895
l 1896 1897
l 1898 1899
l 1900 1901
l 1902 1903
l 1897 1904
l 1905 1906
l 1906 1907
l 1908 1909
l 1909 1910
l 1911 1912
l 1913 1914
l 1915 1913
l 1916 1917
l 1918 1919
l 1920 1921
l 1922 1923
l 1924 1922
l 1925 1926
l 1927 1928
l 1929 1930
l 1931 1932
l 1932 1933
l 1934 1935
l 1936 1937
l 1938 1939
l 1940 1894
l 1939 1936
l 1937 1940
l 1935 1938
l 1933 1934
l 1930 1931
l 1928 1929
l 1941 1927
l 1926 1941
l 1923 1925
l 1921 1924
l 1919 1920
l 1917 1918
l 1893 1916
l 1912 1908
l 1910 1915
l 1907 1911
l 1942 1905
l 1904 1902
l 1903 1942
l 1901 1896
l 1899 1943
l 1943 1900
l 1895 1898
l 1944 1945
l 1946 1944
l 1947 1948
l 1949 1950
l 1950 1946
l 1951 1949
l 1948 1952
l 1952 1951
l 1953 1954
l 1955 1947
l 1954 1955
l 1956 1953
l 1957 1956
l 1958 1957
l 1959 1958
l 1960 1961
l 1962 1960
l 1963 1964
l 1914 1965
l 1966 1967
l 1968 1969
l 1970 1971
l 1972 1970
l 1973 1972
l 1974 1973
l 1975 1974
l 1976 1977
l 1978 1976
l 1979 1980
l 1981 1979
l 1982 1981
l 1983 1982
l 1984 1985
l 1986 1987
l 1987 1984
l 1985 1983
l 1945 1986
l 1977 1975
l 1980 1978
l 1971 1988
l 1988 1989
l 1989 1990
l 1990 1991
l 1991 1992
l 1992 1968
l 1969 1993
l 1993 1966
l 1965 1962
l 1964 1959
l 1961 1963
l 1994 1995
l 1996 1997
l 1998 1999
l 2000 2001
l 2002 2003
l 2004 2005
l 2006 2004
l 2007 2008
l 2008 2009
l 2010 2011
l 2012 2010
l 2013 2014
l 2015 1967
l 2011 2013
l 2014 2015
l 2009 1996
l 2016 2007
l 2005 2000
l 2003 2017
l 2017 2006
l 2001 2016
l 2018 1998
l 2019 2018
l 1999 2002
l 1997 2012
l 2020 2021
l 2022 2020
l 2023 2022
l 2024 2023
l 2025 2024
l 2026 2025
l 2027 2026
l 2028 2027
l 2029 2028
l 2030 2029
l 2031 2030
l 2032 26
l 2033 2032
l 2034 2035
l 2036 2037
l 2038 2031
l 2021 2036
l 2037 2034
l 2035 2033
l 2039 2040
l 2041 2039
l 2042 2041
l 2043 2044
l 2040 2043
l 2045 2046
l 2044 2045
l 2047 2048
l 2046 2047
l 2049 2050
l 2051 2052
l 2053 2054
l 2055 2056
l 2057 2058
l 2059 2057
l 2060 2061
l 2058 2060
l 2062 2063
l 2063 2064
l 2064 2065
l 2065 2066
l 2066 2067
l 2067 2068
l 2069 2070
l 2068 2069
l 2071 2072
l 2070 2071
l 2072 2073
l 2074 2075
l 2073 2074
l 2076 2077
l 26 2078
l 2079 2080
l 2081 2082
l 2080 2081
l 2083 2084
l 2085 2083
l 2086 2087
l 2088 2086
l 2089 2090
l 2091 2089
l 2092 2093
l 2090 2092
l 2094 2095
l 2093 2094
l 2096 2097
l 2095 2096
l 2098 2099
l 2100 2098
l 2101 2102
l 2103 2104
l 2105 2106
l 2107 2108
l 2109 2107
l 2110 2111
l 2108 2110
l 2112 2113
l 2111 2112
l 2114 2115
l 2116 2114
l 2113 2116
l 2117 2042
l 2115 2117
l 2106 2109
l 2104 2105
l 2118 2101
l 2119 2118
l 2102 2103
l 2099 2119
l 2097 2100
l 2087 2091
l 2084 2088
l 2082 2085
l 2120 2079
l 2078 2120
l 2077 2121
l 2075 2076
l 2061 2062
l 2122 2123
l 2124 2125
l 2126 2124
l 2127 2128
l 2129 2127
l 2130 2131
l 2132 2130
l 2133 2134
l 2135 2136
l 2136 2137
l 2138 2139
l 26 2140
l 2141 2142
l 2142 2143
l 2144 2141
l 2145 2146
l 2147 2148
l 2149 2150
l 2151 2152
l 2153 2154
l 2155 2156
l 2157 2158
l 2158 2159
l 2160 2161
l 2162 2163
l 2123 2164
l 2164 2162
l 2163 2160
l 2161 2157
l 2159 2155
l 2156 2165
l 2165 2153
l 2154 2151
l 2152 2149
l 2150 2147
l 2148 2145
l 2146 2144
l 2140 2138
l 2139 2135
l 2137 2133
l 2134 2132
l 2131 2129
l 2128 2126
l 2125 2122
l 2166 2167
l 2168 2169
l 2169 2170
l 2171 2172
l 2173 2174
l 2175 2173
l 2176 2177
l 2178 2179
l 2179 2180
l 2181 2182
l 2183 2181
l 2182 2184
l 2185 2186
l 2187 2185
l 2188 2187
l 2189 2190
l 2191 2192
l 2193 2191
l 2194 2195
l 2143 2194
l 2196 2197
l 2198 2199
l 2200 2201
l 2202 2203
l 2204 2200
l 2205 2206
l 2199 2207
l 2208 2209
l 2207 2205
l 2203 2196
l 2201 2202
l 2206 2204
l 2195 2193
l 2192 2189
l 2190 2188
l 2186 2183
l 2184 2178
l 2180 2176
l 2177 2210
l 2210 2175
l 2174 2171
l 2172 2168
l 2170 2166
l 2167 2211
l 2038 2212
l 2212 2213
l 2213 2214
l 2215 2216
l 2217 2215
l 2218 2219
l 2220 2221
l 2222 2223
l 2224 2225
l 2226 2227
l 2228 2229
l 2230 2231
l 2232 2233
l 2234 2235
l 2236 2237
l 2237 2238
l 2239 2240
l 2241 2242
l 2243 2244
l 2245 2246
l 2246 27
l 2247 2245
l 2244 2247
l 2248 2243
l 2242 2248
l 2240 2241
l 2238 2239
l 2235 2236
l 2233 2234
l 2231 2232
l 2229 2230
l 2227 2228
l 2225 2226
l 2249 2224
l 2223 2249
l 2250 2222
l 2221 2250
l 2219 2220
l 2216 2218
l 2251 2252
l 2252 2253
l 2253 2254
l 2254 2255
l 2255 2256
l 2256 2257
l 2257 2258
l 2258 2259
l 2259 2260
l 2260 2261
l 2261 2262
l 2262 2263
l 2263 28
l 2264 2265
l 2265 2266
l 2266 2267
l 2267 2268
l 2268 2269
l 2269 2270
l 2270 2271
l 2271 2272
l 2272 2273
l 2273 2274
l 29 2264
l 2274 2275
l 2275 2276
l 2276 2277
l 2277 2278
l 2278 2279
l 2279 2280
l 2280 2281
l 2281 2282
l 2282 2283
l 2283 2284
l 2284 2285
l 2285 2286
l 2286 2287
l 2287 2288
l 2288 2289
l 2289 2290
l 2290 2291
l 2291 2292
l 2292 2293
l 2293 2294
l 2294 2295
l 2295 2296
l 2296 2297
l 2297 2298
l 2298 2299
l 2299 2300
l 2300 2301
l 2301 2302
l 2302 2303
l 2303 2304
l 2304 2305
l 2305 2306
l 2306 2307
l 2307 2308
l 2308 2309
l 2309 2310
l 2310 2311
l 2311 2312
l 2312 2313
l 2313 2314
l 2314 2315
l 2315 2316
l 2316 2317
l 2317 2318
l 2318 2319
l 2319 2320
l 2320 2321
l 2321 2322
l 2322 2323
l 2323 2324
l 2324 2325
l 2325 2326
l 2326 2327
l 2327 2328
l 2328 2329
l 2329 2330
l 2330 2331
l 2331 2332
l 2332 2333
l 2333 2334
l 2334 2335
l 2335 2336
l 2336 2337
l 2337 2338
l 2338 2339
l 2339 2340
l 2340 2341
l 2341 2342
l 2342 2343
l 2343 2344
l 2344 2345
l 2345 2346
l 2346 2347
l 2347 2348
l 2348 2349
l 2349 2350
l 2350 2351
l 2351 2352
l 2352 2353
l 2353 2354
l 2354 2355
l 2355 2356
l 2356 2357
l 2357 2358
l 2358 2359
l 2359 2360
l 2360 2361
l 2361 2362
l 2362 2363
l 2363 2364
l 2364 2365
l 2365 2366
l 2366 2367
l 2367 2368
l 2368 2369
l 2369 2370
l 2370 2371
l 2371 2251
l 31 30
# </edges>
